<?xml version="1.0" encoding="UTF-8"?>
<svg version="1.1" xmlns="http://www.w3.org/2000/svg" width="300" height="300">
<path d="M0 0 C1.87945312 0.05607422 1.87945312 0.05607422 3.796875 0.11328125 C10.01279232 1.14692361 13.82435276 4.51512014 17.81396484 9.23974609 C20.52642446 13.86319392 20.16066913 18.77170215 20.0625 24 C20.0612258 26.1419366 20.06738814 28.28389433 20.08203125 30.42578125 C20.06889893 31.36462158 20.0557666 32.30346191 20.04223633 33.27075195 C20.07721811 35.94983805 20.07721811 35.94983805 22.25 38.6875 C22.394375 39.80125 22.53875 40.915 22.6875 42.0625 C23.27370906 45.84029173 24.26819988 47.49380772 26.25 50.6875 C27.13437858 52.5580947 28.00888281 54.43338025 28.875 56.3125 C38.06617607 74.80832346 54.64696204 88.70353949 73.89453125 95.640625 C75.41665343 96.14226139 76.94231777 96.63339269 78.47265625 97.109375 C80.25 97.6875 80.25 97.6875 82.25 98.6875 C84.95128809 98.81086356 87.62575766 98.87590448 90.328125 98.890625 C91.13231873 98.89632507 91.93651245 98.90202515 92.76507568 98.90789795 C94.46983524 98.91735301 96.17461311 98.92388394 97.87939453 98.92773438 C100.47591544 98.93741025 103.0716347 98.96841563 105.66796875 99 C107.32551614 99.00653319 108.98306919 99.01178242 110.640625 99.015625 C111.41271301 99.0279718 112.18480103 99.0403186 112.98028564 99.05303955 C117.83871304 99.03317114 120.96716224 98.20544752 125.25 95.6875 C126.71651129 95.15151618 128.19539464 94.64745175 129.6875 94.1875 C146.33670699 88.81498279 159.2026775 78.31217866 168.83984375 63.75390625 C170.25 61.6875 170.25 61.6875 172.25 59.6875 C172.78662216 57.29736586 172.78662216 57.29736586 173.125 54.5625 C174.12924829 48.49715912 175.7912109 43.1462891 180.25 38.6875 C181.13643044 35.11961748 181.28554254 31.73012063 181.25 28.078125 C181.16161335 12.59098559 181.16161335 12.59098559 186.5625 6.5625 C191.72668411 1.76535708 195.42388875 0.33465813 202.5 0.0625 C203.76328125 -0.01226562 205.0265625 -0.08703125 206.328125 -0.1640625 C210.81479092 0.38409252 213.68761687 2.40888026 216.69726562 5.71435547 C219.87201831 11.79330801 219.18739533 18.71228065 218.96337891 25.41650391 C218.87452853 28.07661549 218.84040063 30.73311358 218.81640625 33.39453125 C218.78958189 35.08338583 218.75974245 36.77219582 218.7265625 38.4609375 C218.71178864 39.25672211 218.69701477 40.05250671 218.68179321 40.87240601 C218.48692225 46.45057775 218.48692225 46.45057775 216.25 48.6875 C215.64128071 51.24528838 215.64128071 51.24528838 215.25 54.125 C214.70175624 57.80117023 214.35046809 59.53679786 212.25 62.6875 C211.981875 63.739375 211.71375 64.79125 211.4375 65.875 C210.0290503 70.39686484 207.88296943 73.79623303 205.25 77.6875 C204.63769531 78.60660156 204.02539062 79.52570313 203.39453125 80.47265625 C201.88125296 82.74119548 200.3657327 85.00811664 198.84765625 87.2734375 C198.43483398 87.89049561 198.02201172 88.50755371 197.59667969 89.14331055 C196.72218216 90.45023547 195.84648299 91.75635697 194.96972656 93.06176758 C192.70549872 96.44684661 190.53919008 99.84793182 188.5 103.375 C185.62863939 108.01335176 181.81733581 110.06056568 176.8125 112.0625 C173.76481516 113.45267203 172.2077505 114.4529433 169.8125 116.625 C166.82594094 119.33094278 163.88035943 121.05124268 160.2421875 122.75 C156.27798109 124.6155089 152.3645297 126.5729703 149.25 129.6875 C147.20632461 130.06217382 145.19613566 130.19146061 143.125 130.34375 C141.01097714 130.54785366 141.01097714 130.54785366 139.25 132.6875 C137.26276732 133.39131157 135.26222047 134.0586811 133.25 134.6875 C132.59 135.0175 131.93 135.3475 131.25 135.6875 C125.03953161 136.75050158 118.78337366 136.83538216 112.5 136.8203125 C111.15276855 136.82174759 111.15276855 136.82174759 109.77832031 136.82321167 C107.89257741 136.82388761 106.00683209 136.82207456 104.12109375 136.81787109 C101.25775862 136.81251451 98.39458033 136.81783615 95.53125 136.82421875 C93.68749966 136.82355786 91.84374941 136.82227649 90 136.8203125 C89.15598633 136.82233673 88.31197266 136.82436096 87.44238281 136.82644653 C73.13906144 136.77086276 73.13906144 136.77086276 67.25 133.6875 C66.156875 133.378125 65.06375 133.06875 63.9375 132.75 C55.51529973 130.32326433 47.72197197 126.21000935 40.25 121.6875 C38.88294922 121.05521484 38.88294922 121.05521484 37.48828125 120.41015625 C33.96754432 118.53724312 31.05708457 116.2845774 28.0625 113.6875 C27.22102417 112.96445679 27.22102417 112.96445679 26.36254883 112.22680664 C13.06411249 100.66270413 -0.17594667 87.33510272 -6.75 70.6875 C-7.61595085 69.01359501 -8.48268316 67.34003158 -9.36474609 65.67456055 C-12.35049736 60.00532495 -14.49568997 55.17240576 -14.75 48.6875 C-15.08 48.3575 -15.41 48.0275 -15.75 47.6875 C-16.90413225 39.70331643 -17.17818933 31.68242879 -17.375 23.625 C-17.41093262 22.96137451 -17.44686523 22.29774902 -17.48388672 21.61401367 C-18.06361568 10.67797458 -18.06361568 10.67797458 -14.97460938 5.99731445 C-10.23914118 1.42568047 -6.52975039 -0.3454536 0 0 Z " fill="#B72426" transform="translate(53.75,136.3125)"/>
<path d="M0 0 C1.14942581 0.00324783 2.29885162 0.00649567 3.48310852 0.00984192 C5.89953441 0.02555292 8.31590677 0.06292762 10.73168945 0.12084961 C14.42588443 0.20703366 18.11543681 0.22336 21.81054688 0.22851562 C24.16540959 0.25242687 26.52023623 0.28028603 28.875 0.3125 C29.9751091 0.32008835 31.0752182 0.3276767 32.20866394 0.335495 C38.33102857 0.50610441 42.090642 0.90624498 46.73828125 5.01953125 C50.26702297 9.25402131 51.52581961 13.42274485 52.953125 18.625 C54.00574031 21.83521484 55.77270744 24.29309016 57.73828125 27.01953125 C58.7679026 29.43655743 59.68667291 31.87995415 60.59765625 34.34375 C63.22963275 41.32772274 66.39475229 48.67600229 71.73828125 54.01953125 C74.46786282 54.19524903 77.09571028 54.24720994 79.82470703 54.21142578 C80.66070938 54.20862106 81.49671173 54.20581635 82.35804749 54.20292664 C84.1778047 54.19641742 85.99755074 54.18581909 87.81726456 54.17166519 C90.70139162 54.15222378 93.58502242 54.14999473 96.46920776 54.15353394 C104.67110764 54.16323381 112.87252689 54.16373971 121.07421875 54.09863281 C126.08898707 54.06008392 131.10247208 54.06057049 136.11730576 54.08620834 C138.02541663 54.08861795 139.93360421 54.07659264 141.84152603 54.0496254 C158.65708325 53.82176543 158.65708325 53.82176543 163.90795898 58.78442383 C167.40686648 63.08924315 167.94430925 67.16680636 167.67578125 72.58203125 C167.65555908 73.4217749 167.63533691 74.26151855 167.61450195 75.12670898 C167.34598099 79.83391384 166.87247012 83.1058835 163.42578125 86.58203125 C161.5625 87.9609375 161.5625 87.9609375 159.73828125 89.01953125 C158.74828125 89.67953125 157.75828125 90.33953125 156.73828125 91.01953125 C154.75724697 91.29076672 154.75724697 91.29076672 152.45860291 91.32060242 C151.58544434 91.33635818 150.71228577 91.35211395 149.81266785 91.36834717 C148.85733658 91.37529602 147.90200531 91.38224487 146.91772461 91.3894043 C145.90922455 91.40415298 144.90072449 91.41890167 143.86166382 91.43409729 C140.51716113 91.47869214 137.17283346 91.50686846 133.828125 91.53125 C132.68493868 91.5406492 131.54175236 91.55004841 130.36392403 91.55973244 C124.30944609 91.6073352 118.25505521 91.6410029 112.20043945 91.66479492 C105.9578439 91.69246456 99.71700907 91.77159387 93.47505856 91.86233807 C88.6664634 91.92226695 83.85828366 91.94207321 79.04934883 91.95130348 C76.74925605 91.96286385 74.44918561 91.98965248 72.14945793 92.03223228 C51.89654302 92.38489225 51.89654302 92.38489225 45.43579102 86.71020508 C43.38063049 84.34553528 43.38063049 84.34553528 41.73828125 82.01953125 C41.18788681 81.31233444 40.63749237 80.60513763 40.07041931 79.87651062 C38.50382958 77.69270933 37.69280667 75.5284617 36.73828125 73.01953125 C35.81668034 71.15741094 34.87799992 69.30368224 33.92578125 67.45703125 C31.26665737 62.21030028 28.97057676 56.88956185 26.81640625 51.41796875 C25.85491088 48.89947142 25.85491088 48.89947142 23.73828125 47.01953125 C23.44953125 46.23578125 23.16078125 45.45203125 22.86328125 44.64453125 C21.53924178 41.55510583 20.37734927 40.10676666 17.73828125 38.01953125 C14.59765846 37.52293185 14.59765846 37.52293185 11.1015625 37.7265625 C9.1515332 37.73913086 9.1515332 37.73913086 7.16210938 37.75195312 C5.11177922 37.7849402 3.06415314 37.83154538 1.01489258 37.90600586 C-6.37765016 38.1431471 -11.99075236 38.19428027 -17.6484375 33.03125 C-21.46282036 28.46956683 -22.66194666 24.89106002 -22.38671875 19.01953125 C-22.42152344 18.27703125 -22.45632812 17.53453125 -22.4921875 16.76953125 C-22.41437303 11.78940539 -20.80395105 8.95004203 -17.45336914 5.30200195 C-11.93970004 0.01943617 -7.39212995 -0.22907645 0 0 Z " fill="#D15555" transform="translate(52.26171875,44.98046875)"/>
<path d="M0 0 C5.27501998 5.57238631 7.25271715 8.65853307 7.15234375 16.3984375 C6.8032291 22.36024158 5.23613126 26.76386874 1 31 C-4.42116928 34.93034773 -10.56650132 34.78867959 -17 34 C-21.8650704 31.6575587 -25.38085514 27.9558095 -29 24 C-30.78244185 18.65267444 -31.02356669 12.24616865 -29.31640625 6.83203125 C-26.75638615 2.02004327 -22.85605253 -1.8893129 -17.75 -3.875 C-11.47231395 -4.16034937 -5.00832934 -4.17360778 0 0 Z " fill="#AC1D21" transform="translate(199,159)"/>
<path d="M0 0 C5.42600636 0.06825165 9.59422601 0.66867972 13.91796875 4.1015625 C17.96802752 8.79826931 18.28335355 13.88070409 18.09790039 19.86108398 C17.72146041 24.19278127 17.05590307 27.62883349 14.35546875 31.1640625 C8.78448839 35.56483694 1.45021282 35.43413014 -5.35546875 34.96875 C-9.66372903 34.37665315 -11.9908979 33.07877404 -14.95703125 29.7890625 C-18.75350708 24.35677796 -19.4335957 19.58509044 -18.83203125 13.1015625 C-17.07816445 8.13227322 -14.09710977 4.19424977 -9.83203125 1.1015625 C-6.46507404 0.09147534 -3.48803977 0.12508832 0 0 Z " fill="#AD191D" transform="translate(118.83203125,155.8984375)"/>
<path d="M0 0 C0.33 0.99 0.66 1.98 1 3 C-0.10097568 4.12812303 -1.20591556 5.25237811 -2.3125 6.375 C-2.92738281 7.00148437 -3.54226562 7.62796875 -4.17578125 8.2734375 C-7.92420044 11.82119186 -10.15230404 12.23328378 -15.1875 12.125 C-16.27417969 12.10695312 -17.36085937 12.08890625 -18.48046875 12.0703125 C-19.72763672 12.03550781 -19.72763672 12.03550781 -21 12 C-18.05885155 10.32669891 -17.09330739 9.99321401 -13.5625 10.25 C-9.77891153 10.38619304 -9.77891153 10.38619304 -7.375 7.25 C-6.98699219 6.70601562 -6.59898437 6.16203125 -6.19921875 5.6015625 C-4.47385611 3.29733227 -2.29670452 1.70612336 0 0 Z " fill="#D76C6C" transform="translate(218,124)"/>
<path d="M0 0 C3 1 3 1 4.6875 3.9375 C6 7 6 7 6 9 C6.66 9 7.32 9 8 9 C8.48198463 10.24891614 8.96045677 11.49918808 9.4375 12.75 C9.70433594 13.44609375 9.97117187 14.1421875 10.24609375 14.859375 C10.96146693 16.89059003 11.51365652 18.9035291 12 21 C8.51318951 17.78846402 6.6547418 15.38894408 5 11 C4.14168568 9.24175612 3.266646 7.49157756 2.375 5.75 C0 1.10982659 0 1.10982659 0 0 Z " fill="#D96566" transform="translate(84,107)"/>
<path d="M0 0 C5.89889027 0.35393342 8.90482848 1.71435539 13 6 C14.375 9.3125 14.375 9.3125 15 12 C14.34 12 13.68 12 13 12 C11.64721885 10.01310269 10.31431695 8.01254782 9 6 C8.34 5.67 7.68 5.34 7 5 C7 4.34 7 3.68 7 3 C4.69 2.67 2.38 2.34 0 2 C0 1.34 0 0.68 0 0 Z " fill="#D27879" transform="translate(88,46)"/>
<path d="M0 0 C2.82923249 0.56003869 5.60349584 0.84753692 8.4765625 1.08984375 C9.45238281 1.17363281 10.42820312 1.25742188 11.43359375 1.34375 C12.53767578 1.43462891 12.53767578 1.43462891 13.6640625 1.52734375 C13.6640625 1.85734375 13.6640625 2.18734375 13.6640625 2.52734375 C6.0740625 2.52734375 -1.5159375 2.52734375 -9.3359375 2.52734375 C-9.6659375 1.86734375 -9.9959375 1.20734375 -10.3359375 0.52734375 C-7.02119459 -1.13002771 -3.57371572 -0.7231097 0 0 Z " fill="#DA6B6B" transform="translate(113.3359375,133.47265625)"/>
<path d="M0 0 C1.60156595 4.00391487 0.4087561 7.07031192 -1 11 C-1.99 11.495 -1.99 11.495 -3 12 C-2.88541307 10.56163249 -2.75790884 9.12429034 -2.625 7.6875 C-2.55539063 6.88699219 -2.48578125 6.08648437 -2.4140625 5.26171875 C-2 3 -2 3 0 0 Z " fill="#B42326" transform="translate(172,162)"/>
<path d="M0 0 C1.32 0 2.64 0 4 0 C2.52307692 4.67692308 2.52307692 4.67692308 -0.125 6.3125 C-1.053125 6.6528125 -1.053125 6.6528125 -2 7 C-1.34 4.69 -0.68 2.38 0 0 Z " fill="#B68082" transform="translate(200,183)"/>
<path d="M0 0 C3 1 3 1 4.75 3.8125 C6.05483179 7.13982105 6.02866653 7.79584277 5 11 C4.16426177 9.35538655 3.33147118 7.70927487 2.5 6.0625 C2.0359375 5.14597656 1.571875 4.22945313 1.09375 3.28515625 C0 1 0 1 0 0 Z " fill="#D77071" transform="translate(84,107)"/>
<path d="M0 0 C0.66 0 1.32 0 2 0 C0.60667426 3.36720387 -0.9789286 4.9859524 -4 7 C-4.66 6.67 -5.32 6.34 -6 6 C-4.71034824 4.62437146 -3.37310707 3.29233607 -2 2 C-1.34 2 -0.68 2 0 2 C0 1.34 0 0.68 0 0 Z " fill="#CA9395" transform="translate(240,239)"/>
</svg>
