<?xml version="1.0" encoding="UTF-8"?>
<svg version="1.1" xmlns="http://www.w3.org/2000/svg" width="192" height="192">
<path d="M0 0 C16.33220119 13.88711874 27.31269506 33.47526395 30.3125 54.75 C30.60227628 59.00419171 30.64652429 63.23694212 30.625 67.5 C30.61762817 69.22307373 30.61762817 69.22307373 30.61010742 70.98095703 C30.42970391 84.04957251 27.84043443 94.85709374 22.3125 106.75 C22.01730469 107.44351563 21.72210938 108.13703125 21.41796875 108.8515625 C12.76422732 128.05575581 -5.14095485 142.82496904 -24.3203125 150.53515625 C-46.47186843 158.52719093 -72.48390924 159.00848514 -94.04199219 148.96313477 C-101.01768715 145.52843076 -107.59349212 141.59608817 -113.6875 136.75 C-114.50476563 136.10804688 -115.32203125 135.46609375 -116.1640625 134.8046875 C-133.09143951 120.60246097 -143.19602254 99.515171 -145.6875 77.75 C-147.33091126 50.38236904 -139.72135819 26.85094095 -121.4453125 6.21875 C-89.04166839 -28.20348177 -36.13946699 -28.01823845 0 0 Z " fill="#F9F7F7" transform="translate(153.6875,28.25)"/>
<path d="M0 0 C18.34579879 -0.20510831 36.66598011 0.42319937 55 1 C55 5.95 55 10.9 55 16 C54.34 16 53.68 16 53 16 C52.71125 14.865625 52.4225 13.73125 52.125 12.5625 C51.75375 11.386875 51.3825 10.21125 51 9 C47.83034858 7.41517429 44.36255459 7.62147177 40.875 7.4375 C38.27625 7.293125 35.6775 7.14875 33 7 C33.495 18.88 33.495 18.88 34 31 C37.80887179 32.32390714 41.62153638 33.63432503 45.4375 34.9375 C46.50677734 35.31068359 47.57605469 35.68386719 48.67773438 36.06835938 C49.73154297 36.42607422 50.78535156 36.78378906 51.87109375 37.15234375 C52.82943115 37.48226318 53.78776855 37.81218262 54.77514648 38.15209961 C58.76092206 39.2000668 62.90396382 39.54488487 67 40 C66.505 22.675 66.505 22.675 66 5 C64.02 4.34 62.04 3.68 60 3 C60 2.34 60 1.68 60 1 C68.25 1 76.5 1 85 1 C85 1.33 85 1.66 85 2 C83.02 2.66 81.04 3.32 79 4 C78.67 15.22 78.34 26.44 78 38 C81.3 37.01 84.6 36.02 88 35 C89.32 34.67 90.64 34.34 92 34 C89.17882613 40.9064803 81.70073545 45.46042574 75.125 48.4375 C59.39135955 54.91093509 44.6204021 49.90077396 29.57714844 44.00878906 C27.33398142 43.1307324 25.08348373 42.28564293 22.8203125 41.4609375 C14.81044888 38.50037566 14.81044888 38.50037566 11.62109375 36.53125 C-2.37024454 28.35747264 -18.6165846 28.34969804 -34 32 C-28.64761153 26.08420222 -20.4327245 22.46284385 -12.55273438 21.79150391 C-9.7820988 21.67246101 -7.0231542 21.62764247 -4.25 21.625 C-3.35087891 21.62346924 -2.45175781 21.62193848 -1.52539062 21.62036133 C3.67827979 21.70667128 7.99958713 22.45336067 13 24 C15.64 24.33 18.28 24.66 21 25 C21.33 19.06 21.66 13.12 22 7 C19.07125 7.12375 16.1425 7.2475 13.125 7.375 C12.20348145 7.40899902 11.28196289 7.44299805 10.33251953 7.47802734 C9.60661621 7.5136377 8.88071289 7.54924805 8.1328125 7.5859375 C7.38918457 7.6173584 6.64555664 7.6487793 5.87939453 7.68115234 C3.75989026 7.85419551 3.75989026 7.85419551 2 10 C1.35232207 12.57061311 1.35232207 12.57061311 1 15 C0.34 15 -0.32 15 -1 15 C-1.02693575 12.87506859 -1.04636628 10.75004088 -1.0625 8.625 C-1.07410156 7.44164062 -1.08570313 6.25828125 -1.09765625 5.0390625 C-1 2 -1 2 0 0 Z " fill="#F21414" transform="translate(53,52)"/>
<path d="M0 0 C0 3 0 3 -1.94140625 5.3046875 C-3.23884766 6.57699219 -3.23884766 6.57699219 -4.5625 7.875 C-5.46871094 8.77089844 -6.37492187 9.66679688 -7.30859375 10.58984375 C-9.55092861 12.59785624 -11.52338756 13.98978548 -14.125 15.4375 C-17.20928328 17.66318736 -17.20928328 17.66318736 -17.49609375 20.6015625 C-17.60126055 25.29076449 -17.3883448 28.89049984 -15 33 C-12.22813012 33.10787818 -9.46044463 33.18723327 -6.6875 33.25 C-5.50897461 33.30027344 -5.50897461 33.30027344 -4.30664062 33.3515625 C0.23633453 33.55302769 0.23633453 33.55302769 3.91796875 31.234375 C4.27503906 30.49703125 4.63210937 29.7596875 5 29 C5.391875 28.2575 5.78375 27.515 6.1875 26.75 C6.455625 26.1725 6.72375 25.595 7 25 C7.05402274 27.10388569 7.09280256 29.20816714 7.125 31.3125 C7.14820313 32.48425781 7.17140625 33.65601563 7.1953125 34.86328125 C7 38 7 38 5 41 C1.94924916 41.266487 -0.89626179 41.34757146 -3.9453125 41.29296875 C-5.27283035 41.28660149 -5.27283035 41.28660149 -6.62716675 41.28010559 C-9.46008445 41.26328259 -12.29229652 41.22562425 -15.125 41.1875 C-17.04295849 41.17245782 -18.96092811 41.15876861 -20.87890625 41.14648438 C-25.58621031 41.11336727 -30.29298544 41.06156055 -35 41 C-35 40.34 -35 39.68 -35 39 C-33.68 39 -32.36 39 -31 39 C-28.73150334 35.34827367 -28.6104049 31.9872882 -28.375 27.75 C-28.30023438 26.48671875 -28.22546875 25.2234375 -28.1484375 23.921875 C-28.09945312 22.95765625 -28.05046875 21.9934375 -28 21 C-28.56807373 21.02618408 -29.13614746 21.05236816 -29.72143555 21.0793457 C-41.57809871 21.55274932 -51.24855056 21.58516854 -62 16 C-61.89008434 19.10489399 -61.75946585 22.20857994 -61.625 25.3125 C-61.5940625 26.19357422 -61.563125 27.07464844 -61.53125 27.98242188 C-61.49257812 28.82998047 -61.45390625 29.67753906 -61.4140625 30.55078125 C-61.36693115 31.72120972 -61.36693115 31.72120972 -61.31884766 32.9152832 C-61.10412111 35.30155768 -61.10412111 35.30155768 -59 38 C-56.43717258 38.72965366 -56.43717258 38.72965366 -54 39 C-54 39.66 -54 40.32 -54 41 C-62.25 41 -70.5 41 -79 41 C-79 40.34 -79 39.68 -79 39 C-77.35 38.34 -75.7 37.68 -74 37 C-74 27.76 -74 18.52 -74 9 C-77.465 7.02 -77.465 7.02 -81 5 C-80.34 4.67 -79.68 4.34 -79 4 C-76.77772274 4.95545712 -74.65479533 5.97157967 -72.5 7.0625 C-58.68220201 13.71670081 -43.84715503 20.30828027 -28.26953125 16.296875 C-25.74140659 15.34832584 -23.40231784 14.23166454 -21 13 C-20.02289063 12.55269531 -19.04578125 12.10539062 -18.0390625 11.64453125 C-11.3368629 8.49601683 -5.62930872 4.80481401 0 0 Z " fill="#3E3E3E" transform="translate(148,93)"/>
<path d="M0 0 C16.33220119 13.88711874 27.31269506 33.47526395 30.3125 54.75 C30.60227628 59.00419171 30.64652429 63.23694212 30.625 67.5 C30.61762817 69.22307373 30.61762817 69.22307373 30.61010742 70.98095703 C30.42970391 84.04957251 27.84043443 94.85709374 22.3125 106.75 C22.01730469 107.44351563 21.72210938 108.13703125 21.41796875 108.8515625 C12.76422732 128.05575581 -5.14095485 142.82496904 -24.3203125 150.53515625 C-46.47186843 158.52719093 -72.48390924 159.00848514 -94.04199219 148.96313477 C-101.01768715 145.52843076 -107.59349212 141.59608817 -113.6875 136.75 C-114.50476563 136.10804688 -115.32203125 135.46609375 -116.1640625 134.8046875 C-133.09143951 120.60246097 -143.19602254 99.515171 -145.6875 77.75 C-147.33091126 50.38236904 -139.72135819 26.85094095 -121.4453125 6.21875 C-89.04166839 -28.20348177 -36.13946699 -28.01823845 0 0 Z M-122.4375 9.625 C-136.84948546 26.29768906 -143.86322926 45.22412648 -143.875 67 C-143.88724609 68.17691406 -143.89949219 69.35382813 -143.91210938 70.56640625 C-143.94793697 92.03907742 -135.84803823 111.80244868 -121.01953125 127.4140625 C-120.24996094 128.18492187 -119.48039062 128.95578125 -118.6875 129.75 C-117.92824219 130.52085937 -117.16898438 131.29171875 -116.38671875 132.0859375 C-100.02552167 147.77769117 -78.34325461 155.25131125 -55.95361328 155.03759766 C-49.39282597 154.88040034 -43.08450658 154.27633744 -36.6875 152.75 C-35.50800781 152.49283203 -35.50800781 152.49283203 -34.3046875 152.23046875 C-22.42573592 149.19212305 -10.85103858 142.80605438 -1.6875 134.75 C-0.95402344 134.15832031 -0.22054687 133.56664062 0.53515625 132.95703125 C16.53012867 119.65075059 26.64588083 99.26815307 29.3125 78.75 C30.49015841 59.86664532 28.28178777 43.56460464 19.3125 26.75 C18.84972656 25.86828125 18.38695312 24.9865625 17.91015625 24.078125 C14.22201999 17.49873511 9.50605622 12.18297548 4.3125 6.75 C3.50039063 5.82574219 3.50039063 5.82574219 2.671875 4.8828125 C-11.06149049 -10.1684012 -33.7877066 -18.12478968 -53.73828125 -19.453125 C-80.52219929 -19.83804358 -104.01017133 -10.08504594 -122.4375 9.625 Z " fill="#404040" transform="translate(153.6875,28.25)"/>
<path d="M0 0 C15.86478459 -1.39164777 31.53008103 7.52054202 43.45458984 17.29052734 C47.35882526 20.57870984 51.10397073 23.74054802 54 28 C53.67 28.66 53.34 29.32 53 30 C52.36835938 29.31035156 51.73671875 28.62070312 51.0859375 27.91015625 C36.70089763 12.79964607 20.15078387 5.57739887 0 1 C0 0.67 0 0.34 0 0 Z " fill="#484848" transform="translate(109,10)"/>
<path d="M0 0 C0 0.66 0 1.32 0 2 C-1.4544662 3.24285329 -2.96615723 4.41904794 -4.5 5.5625 C-15.61859048 14.28173316 -23.00956971 25.30028779 -29 38 C-30.02836788 35.35210667 -30.09593622 34.25128065 -29.06640625 31.5546875 C-24.29888377 23.05982926 -11.01321704 0 0 0 Z " fill="#3F3F3F" transform="translate(46,24)"/>
<path d="M0 0 C4.2742558 1.5830577 6.26531794 4.50568404 9 8 C8.67 8.66 8.34 9.32 8 10 C6.66070495 8.71451591 5.32871357 7.42141845 4 6.125 C2.88625 5.04605469 2.88625 5.04605469 1.75 3.9453125 C0 2 0 2 0 0 Z " fill="#454545" transform="translate(154,30)"/>
<path d="M0 0 C0.66 0.33 1.32 0.66 2 1 C1.67 1.33 1.34 1.66 1 2 C1.66 2.66 2.32 3.32 3 4 C-0.63 4.66 -4.26 5.32 -8 6 C-5.36435544 3.36435544 -3.27929831 1.68169144 0 0 Z " fill="#F23B3A" transform="translate(27,78)"/>
<path d="M0 0 C0.66 0 1.32 0 2 0 C2.625 2.3125 2.625 2.3125 3 5 C2.34 5.99 1.68 6.98 1 8 C0 7 0 7 -0.0625 3.4375 C-0.041875 2.303125 -0.02125 1.16875 0 0 Z " fill="#FBFBFB" transform="translate(177,134)"/>
</svg>
