<svg id="svg" version="1.1" xmlns="http://www.w3.org/2000/svg" xmlns:xlink="http://www.w3.org/1999/xlink" width="400" height="400" viewBox="0, 0, 400,400"><g id="svgg"><path id="path0" d="M183.800 36.000 C 183.664 36.220,182.123 36.400,180.376 36.400 C 178.525 36.400,177.200 36.567,177.200 36.800 C 177.200 37.025,176.075 37.200,174.624 37.200 C 173.207 37.200,171.936 37.380,171.800 37.600 C 171.664 37.820,170.663 38.000,169.576 38.000 C 168.489 38.000,167.600 38.180,167.600 38.400 C 167.600 38.620,166.801 38.800,165.824 38.800 C 164.847 38.800,163.936 38.980,163.800 39.200 C 163.664 39.420,162.843 39.600,161.976 39.600 C 161.109 39.600,160.400 39.780,160.400 40.000 C 160.400 40.220,159.680 40.400,158.800 40.400 C 157.920 40.400,157.200 40.580,157.200 40.800 C 157.200 41.020,156.581 41.200,155.824 41.200 C 155.067 41.200,154.336 41.380,154.200 41.600 C 154.064 41.820,153.423 42.000,152.776 42.000 C 152.129 42.000,151.600 42.180,151.600 42.400 C 151.600 42.620,151.060 42.800,150.400 42.800 C 149.740 42.800,149.200 42.980,149.200 43.200 C 149.200 43.420,148.660 43.600,148.000 43.600 C 147.340 43.600,146.800 43.780,146.800 44.000 C 146.800 44.220,146.260 44.400,145.600 44.400 C 144.940 44.400,144.400 44.580,144.400 44.800 C 144.400 45.020,143.961 45.200,143.424 45.200 C 142.887 45.200,142.336 45.380,142.200 45.600 C 142.064 45.820,141.603 46.000,141.176 46.000 C 140.749 46.000,140.400 46.180,140.400 46.400 C 140.400 46.620,139.860 46.800,139.200 46.800 C 138.540 46.800,138.000 46.980,138.000 47.200 C 138.000 47.420,137.640 47.600,137.200 47.600 C 136.760 47.600,136.400 47.780,136.400 48.000 C 136.400 48.220,135.961 48.400,135.424 48.400 C 134.887 48.400,134.336 48.580,134.200 48.800 C 134.064 49.020,133.603 49.200,133.176 49.200 C 132.749 49.200,132.400 49.380,132.400 49.600 C 132.400 49.820,132.040 50.000,131.600 50.000 C 131.160 50.000,130.800 50.180,130.800 50.400 C 130.800 50.620,130.440 50.800,130.000 50.800 C 129.560 50.800,129.200 50.980,129.200 51.200 C 129.200 51.420,128.840 51.600,128.400 51.600 C 127.960 51.600,127.600 51.780,127.600 52.000 C 127.600 52.220,127.240 52.400,126.800 52.400 C 126.360 52.400,126.000 52.580,126.000 52.800 C 126.000 53.020,125.640 53.200,125.200 53.200 C 124.760 53.200,124.400 53.380,124.400 53.600 C 124.400 53.820,124.040 54.000,123.600 54.000 C 123.160 54.000,122.800 54.180,122.800 54.400 C 122.800 54.620,122.440 54.800,122.000 54.800 C 121.560 54.800,121.200 54.980,121.200 55.200 C 121.200 55.420,120.840 55.600,120.400 55.600 C 119.960 55.600,119.600 55.780,119.600 56.000 C 119.600 56.220,119.364 56.400,119.075 56.400 C 118.787 56.400,118.164 56.760,117.692 57.200 C 117.220 57.640,116.556 58.000,116.217 58.000 C 115.878 58.000,115.600 58.180,115.600 58.400 C 115.600 58.620,115.280 58.800,114.888 58.800 C 114.497 58.800,113.917 59.160,113.600 59.600 C 113.283 60.040,112.703 60.400,112.312 60.400 C 111.920 60.400,111.600 60.550,111.600 60.732 C 111.600 60.915,111.105 61.320,110.500 61.632 C 109.895 61.945,109.051 62.515,108.625 62.900 C 108.198 63.285,107.613 63.600,107.325 63.600 C 107.036 63.600,106.800 63.750,106.800 63.932 C 106.800 64.115,106.305 64.519,105.700 64.830 C 105.095 65.140,104.309 65.711,103.953 66.097 C 103.597 66.484,103.129 66.800,102.912 66.800 C 102.696 66.800,101.954 67.340,101.263 68.000 C 100.572 68.660,99.847 69.200,99.652 69.200 C 99.456 69.200,98.555 69.920,97.648 70.800 C 96.741 71.680,95.835 72.400,95.634 72.400 C 95.434 72.400,94.173 73.480,92.832 74.800 C 91.492 76.120,90.226 77.200,90.020 77.200 C 89.530 77.200,77.200 89.530,77.200 90.020 C 77.200 90.226,76.120 91.492,74.800 92.832 C 73.480 94.173,72.400 95.434,72.400 95.634 C 72.400 95.835,71.680 96.741,70.800 97.648 C 69.920 98.555,69.200 99.456,69.200 99.652 C 69.200 99.847,68.660 100.572,68.000 101.263 C 67.340 101.954,66.800 102.722,66.800 102.971 C 66.800 103.220,66.440 103.683,66.000 104.000 C 65.560 104.317,65.200 104.857,65.200 105.200 C 65.200 105.543,64.840 106.083,64.400 106.400 C 63.960 106.717,63.600 107.173,63.600 107.413 C 63.600 107.653,63.285 108.198,62.900 108.625 C 62.515 109.051,61.945 109.895,61.632 110.500 C 61.320 111.105,60.915 111.600,60.732 111.600 C 60.550 111.600,60.400 111.920,60.400 112.312 C 60.400 112.703,60.040 113.283,59.600 113.600 C 59.160 113.917,58.800 114.497,58.800 114.888 C 58.800 115.280,58.620 115.600,58.400 115.600 C 58.180 115.600,58.000 115.878,58.000 116.217 C 58.000 116.556,57.640 117.220,57.200 117.692 C 56.760 118.164,56.400 118.787,56.400 119.075 C 56.400 119.364,56.220 119.600,56.000 119.600 C 55.780 119.600,55.600 119.960,55.600 120.400 C 55.600 120.840,55.420 121.200,55.200 121.200 C 54.980 121.200,54.800 121.560,54.800 122.000 C 54.800 122.440,54.620 122.800,54.400 122.800 C 54.180 122.800,54.000 123.160,54.000 123.600 C 54.000 124.040,53.820 124.400,53.600 124.400 C 53.380 124.400,53.200 124.760,53.200 125.200 C 53.200 125.640,53.020 126.000,52.800 126.000 C 52.580 126.000,52.400 126.360,52.400 126.800 C 52.400 127.240,52.220 127.600,52.000 127.600 C 51.780 127.600,51.600 127.960,51.600 128.400 C 51.600 128.840,51.420 129.200,51.200 129.200 C 50.980 129.200,50.800 129.560,50.800 130.000 C 50.800 130.440,50.620 130.800,50.400 130.800 C 50.180 130.800,50.000 131.160,50.000 131.600 C 50.000 132.040,49.820 132.400,49.600 132.400 C 49.380 132.400,49.200 132.749,49.200 133.176 C 49.200 133.603,49.020 134.064,48.800 134.200 C 48.580 134.336,48.400 134.887,48.400 135.424 C 48.400 135.961,48.220 136.400,48.000 136.400 C 47.780 136.400,47.600 136.760,47.600 137.200 C 47.600 137.640,47.420 138.000,47.200 138.000 C 46.980 138.000,46.800 138.540,46.800 139.200 C 46.800 139.860,46.620 140.400,46.400 140.400 C 46.180 140.400,46.000 140.749,46.000 141.176 C 46.000 141.603,45.820 142.064,45.600 142.200 C 45.380 142.336,45.200 142.887,45.200 143.424 C 45.200 143.961,45.020 144.400,44.800 144.400 C 44.580 144.400,44.400 144.940,44.400 145.600 C 44.400 146.260,44.220 146.800,44.000 146.800 C 43.780 146.800,43.600 147.340,43.600 148.000 C 43.600 148.660,43.420 149.200,43.200 149.200 C 42.980 149.200,42.800 149.740,42.800 150.400 C 42.800 151.060,42.620 151.600,42.400 151.600 C 42.180 151.600,42.000 152.129,42.000 152.776 C 42.000 153.423,41.820 154.064,41.600 154.200 C 41.380 154.336,41.200 155.067,41.200 155.824 C 41.200 156.581,41.020 157.200,40.800 157.200 C 40.580 157.200,40.400 157.920,40.400 158.800 C 40.400 159.680,40.220 160.400,40.000 160.400 C 39.780 160.400,39.600 161.109,39.600 161.976 C 39.600 162.843,39.420 163.664,39.200 163.800 C 38.980 163.936,38.800 164.847,38.800 165.824 C 38.800 166.801,38.620 167.600,38.400 167.600 C 38.180 167.600,38.000 168.489,38.000 169.576 C 38.000 170.663,37.820 171.664,37.600 171.800 C 37.380 171.936,37.200 173.207,37.200 174.624 C 37.200 176.075,37.025 177.200,36.800 177.200 C 36.567 177.200,36.400 178.525,36.400 180.376 C 36.400 182.123,36.220 183.664,36.000 183.800 C 35.452 184.139,35.452 216.661,36.000 217.000 C 36.220 217.136,36.400 218.677,36.400 220.424 C 36.400 222.275,36.567 223.600,36.800 223.600 C 37.025 223.600,37.200 224.725,37.200 226.176 C 37.200 227.593,37.380 228.864,37.600 229.000 C 37.820 229.136,38.000 230.137,38.000 231.224 C 38.000 232.311,38.180 233.200,38.400 233.200 C 38.620 233.200,38.800 233.999,38.800 234.976 C 38.800 235.953,38.980 236.864,39.200 237.000 C 39.420 237.136,39.600 237.957,39.600 238.824 C 39.600 239.691,39.780 240.400,40.000 240.400 C 40.220 240.400,40.400 241.120,40.400 242.000 C 40.400 242.880,40.580 243.600,40.800 243.600 C 41.020 243.600,41.200 244.219,41.200 244.976 C 41.200 245.733,41.380 246.464,41.600 246.600 C 41.820 246.736,42.000 247.377,42.000 248.024 C 42.000 248.671,42.180 249.200,42.400 249.200 C 42.620 249.200,42.800 249.740,42.800 250.400 C 42.800 251.060,42.980 251.600,43.200 251.600 C 43.420 251.600,43.600 252.140,43.600 252.800 C 43.600 253.460,43.780 254.000,44.000 254.000 C 44.220 254.000,44.400 254.540,44.400 255.200 C 44.400 255.860,44.580 256.400,44.800 256.400 C 45.020 256.400,45.200 256.762,45.200 257.205 C 45.200 257.648,45.380 258.368,45.600 258.805 C 45.820 259.242,46.180 259.958,46.400 260.395 C 46.620 260.832,46.800 261.552,46.800 261.995 C 46.800 262.438,46.980 262.800,47.200 262.800 C 47.420 262.800,47.600 263.160,47.600 263.600 C 47.600 264.040,47.780 264.400,48.000 264.400 C 48.220 264.400,48.400 264.839,48.400 265.376 C 48.400 265.913,48.580 266.464,48.800 266.600 C 49.020 266.736,49.200 267.197,49.200 267.624 C 49.200 268.051,49.380 268.400,49.600 268.400 C 49.820 268.400,50.000 268.760,50.000 269.200 C 50.000 269.640,50.180 270.000,50.400 270.000 C 50.620 270.000,50.800 270.360,50.800 270.800 C 50.800 271.240,50.980 271.600,51.200 271.600 C 51.420 271.600,51.600 271.960,51.600 272.400 C 51.600 272.840,51.780 273.200,52.000 273.200 C 52.220 273.200,52.400 273.560,52.400 274.000 C 52.400 274.440,52.580 274.800,52.800 274.800 C 53.020 274.800,53.200 275.160,53.200 275.600 C 53.200 276.040,53.380 276.400,53.600 276.400 C 53.820 276.400,54.000 276.760,54.000 277.200 C 54.000 277.640,54.180 278.000,54.400 278.000 C 54.620 278.000,54.800 278.360,54.800 278.800 C 54.800 279.240,54.980 279.600,55.200 279.600 C 55.420 279.600,55.600 279.960,55.600 280.400 C 55.600 280.840,55.780 281.200,56.000 281.200 C 56.220 281.200,56.400 281.436,56.400 281.725 C 56.400 282.013,56.760 282.636,57.200 283.108 C 57.640 283.580,58.000 284.244,58.000 284.583 C 58.000 284.922,58.180 285.200,58.400 285.200 C 58.620 285.200,58.800 285.520,58.800 285.912 C 58.800 286.303,59.160 286.883,59.600 287.200 C 60.040 287.517,60.400 288.097,60.400 288.488 C 60.400 288.880,60.550 289.200,60.732 289.200 C 60.915 289.200,61.320 289.695,61.632 290.300 C 61.945 290.905,62.515 291.749,62.900 292.175 C 63.285 292.602,63.600 293.187,63.600 293.475 C 63.600 293.764,63.750 294.000,63.932 294.000 C 64.115 294.000,64.519 294.495,64.830 295.100 C 65.140 295.705,65.711 296.491,66.097 296.847 C 66.484 297.203,66.800 297.671,66.800 297.888 C 66.800 298.104,67.340 298.846,68.000 299.537 C 68.660 300.228,69.200 300.953,69.200 301.148 C 69.200 301.344,69.920 302.245,70.800 303.152 C 71.680 304.059,72.400 304.965,72.400 305.166 C 72.400 305.366,73.480 306.627,74.800 307.968 C 76.120 309.308,77.200 310.574,77.200 310.780 C 77.200 311.270,89.530 323.600,90.020 323.600 C 90.226 323.600,91.492 324.680,92.832 326.000 C 94.173 327.320,95.434 328.400,95.634 328.400 C 95.835 328.400,96.741 329.120,97.648 330.000 C 98.555 330.880,99.456 331.600,99.652 331.600 C 99.847 331.600,100.572 332.140,101.263 332.800 C 101.954 333.460,102.696 334.000,102.912 334.000 C 103.129 334.000,103.597 334.316,103.953 334.703 C 104.309 335.089,105.095 335.660,105.700 335.970 C 106.305 336.281,106.800 336.685,106.800 336.868 C 106.800 337.050,107.036 337.200,107.325 337.200 C 107.613 337.200,108.198 337.515,108.625 337.900 C 109.051 338.285,109.895 338.855,110.500 339.168 C 111.105 339.480,111.600 339.885,111.600 340.068 C 111.600 340.250,111.920 340.400,112.312 340.400 C 112.703 340.400,113.283 340.760,113.600 341.200 C 113.917 341.640,114.497 342.000,114.888 342.000 C 115.280 342.000,115.600 342.180,115.600 342.400 C 115.600 342.620,115.878 342.800,116.217 342.800 C 116.556 342.800,117.220 343.160,117.692 343.600 C 118.164 344.040,118.787 344.400,119.075 344.400 C 119.364 344.400,119.600 344.580,119.600 344.800 C 119.600 345.020,119.960 345.200,120.400 345.200 C 120.840 345.200,121.200 345.380,121.200 345.600 C 121.200 345.820,121.560 346.000,122.000 346.000 C 122.440 346.000,122.800 346.180,122.800 346.400 C 122.800 346.620,123.160 346.800,123.600 346.800 C 124.040 346.800,124.400 346.980,124.400 347.200 C 124.400 347.420,124.760 347.600,125.200 347.600 C 125.640 347.600,126.000 347.780,126.000 348.000 C 126.000 348.220,126.360 348.400,126.800 348.400 C 127.240 348.400,127.600 348.580,127.600 348.800 C 127.600 349.020,127.960 349.200,128.400 349.200 C 128.840 349.200,129.200 349.380,129.200 349.600 C 129.200 349.820,129.560 350.000,130.000 350.000 C 130.440 350.000,130.800 350.180,130.800 350.400 C 130.800 350.620,131.160 350.800,131.600 350.800 C 132.040 350.800,132.400 350.980,132.400 351.200 C 132.400 351.420,132.749 351.600,133.176 351.600 C 133.603 351.600,134.064 351.780,134.200 352.000 C 134.336 352.220,134.887 352.400,135.424 352.400 C 135.961 352.400,136.400 352.580,136.400 352.800 C 136.400 353.020,136.760 353.200,137.200 353.200 C 137.640 353.200,138.000 353.380,138.000 353.600 C 138.000 353.820,138.362 354.000,138.805 354.000 C 139.248 354.000,140.013 354.208,140.505 354.462 C 142.431 355.458,142.817 355.600,143.595 355.600 C 144.038 355.600,144.400 355.780,144.400 356.000 C 144.400 356.220,144.940 356.400,145.600 356.400 C 146.260 356.400,146.800 356.580,146.800 356.800 C 146.800 357.020,147.340 357.200,148.000 357.200 C 148.660 357.200,149.200 357.380,149.200 357.600 C 149.200 357.820,149.740 358.000,150.400 358.000 C 151.060 358.000,151.600 358.180,151.600 358.400 C 151.600 358.620,152.129 358.800,152.776 358.800 C 153.423 358.800,154.064 358.980,154.200 359.200 C 154.336 359.420,155.067 359.600,155.824 359.600 C 156.581 359.600,157.200 359.780,157.200 360.000 C 157.200 360.220,157.920 360.400,158.800 360.400 C 159.680 360.400,160.400 360.580,160.400 360.800 C 160.400 361.020,161.109 361.200,161.976 361.200 C 162.843 361.200,163.664 361.380,163.800 361.600 C 163.936 361.820,164.847 362.000,165.824 362.000 C 166.801 362.000,167.600 362.180,167.600 362.400 C 167.600 362.620,168.489 362.800,169.576 362.800 C 170.663 362.800,171.664 362.980,171.800 363.200 C 171.936 363.420,173.207 363.600,174.624 363.600 C 176.075 363.600,177.200 363.775,177.200 364.000 C 177.200 364.235,178.592 364.400,180.576 364.400 C 182.433 364.400,184.064 364.580,184.200 364.800 C 184.539 365.348,216.261 365.348,216.600 364.800 C 216.736 364.580,218.367 364.400,220.224 364.400 C 222.208 364.400,223.600 364.235,223.600 364.000 C 223.600 363.775,224.725 363.600,226.176 363.600 C 227.593 363.600,228.864 363.420,229.000 363.200 C 229.136 362.980,230.137 362.800,231.224 362.800 C 232.311 362.800,233.200 362.620,233.200 362.400 C 233.200 362.180,233.999 362.000,234.976 362.000 C 235.953 362.000,236.864 361.820,237.000 361.600 C 237.136 361.380,237.957 361.200,238.824 361.200 C 239.691 361.200,240.400 361.020,240.400 360.800 C 240.400 360.580,241.120 360.400,242.000 360.400 C 242.880 360.400,243.600 360.220,243.600 360.000 C 243.600 359.780,244.219 359.600,244.976 359.600 C 245.733 359.600,246.464 359.420,246.600 359.200 C 246.736 358.980,247.377 358.800,248.024 358.800 C 248.671 358.800,249.200 358.620,249.200 358.400 C 249.200 358.180,249.740 358.000,250.400 358.000 C 251.060 358.000,251.600 357.820,251.600 357.600 C 251.600 357.380,252.140 357.200,252.800 357.200 C 253.460 357.200,254.000 357.020,254.000 356.800 C 254.000 356.580,254.540 356.400,255.200 356.400 C 255.860 356.400,256.400 356.220,256.400 356.000 C 256.400 355.780,256.762 355.600,257.205 355.600 C 257.648 355.600,258.413 355.392,258.905 355.138 C 260.831 354.142,261.217 354.000,261.995 354.000 C 262.438 354.000,262.800 353.820,262.800 353.600 C 262.800 353.380,263.160 353.200,263.600 353.200 C 264.040 353.200,264.400 353.020,264.400 352.800 C 264.400 352.580,264.839 352.400,265.376 352.400 C 265.913 352.400,266.464 352.220,266.600 352.000 C 266.736 351.780,267.197 351.600,267.624 351.600 C 268.051 351.600,268.400 351.420,268.400 351.200 C 268.400 350.980,268.760 350.800,269.200 350.800 C 269.640 350.800,270.000 350.620,270.000 350.400 C 270.000 350.180,270.360 350.000,270.800 350.000 C 271.240 350.000,271.600 349.820,271.600 349.600 C 271.600 349.380,271.960 349.200,272.400 349.200 C 272.840 349.200,273.200 349.020,273.200 348.800 C 273.200 348.580,273.560 348.400,274.000 348.400 C 274.440 348.400,274.800 348.220,274.800 348.000 C 274.800 347.780,275.160 347.600,275.600 347.600 C 276.040 347.600,276.400 347.420,276.400 347.200 C 276.400 346.980,276.760 346.800,277.200 346.800 C 277.640 346.800,278.000 346.620,278.000 346.400 C 278.000 346.180,278.360 346.000,278.800 346.000 C 279.240 346.000,279.600 345.820,279.600 345.600 C 279.600 345.380,279.960 345.200,280.400 345.200 C 280.840 345.200,281.200 345.020,281.200 344.800 C 281.200 344.580,281.436 344.400,281.725 344.400 C 282.013 344.400,282.636 344.040,283.108 343.600 C 283.580 343.160,284.244 342.800,284.583 342.800 C 284.922 342.800,285.200 342.620,285.200 342.400 C 285.200 342.180,285.520 342.000,285.912 342.000 C 286.303 342.000,286.883 341.640,287.200 341.200 C 287.517 340.760,288.097 340.400,288.488 340.400 C 288.880 340.400,289.200 340.250,289.200 340.068 C 289.200 339.885,289.695 339.480,290.300 339.168 C 290.905 338.855,291.749 338.285,292.175 337.900 C 292.602 337.515,293.187 337.200,293.475 337.200 C 293.764 337.200,294.000 337.050,294.000 336.868 C 294.000 336.685,294.495 336.281,295.100 335.970 C 295.705 335.660,296.491 335.089,296.847 334.703 C 297.203 334.316,297.671 334.000,297.888 334.000 C 298.104 334.000,298.846 333.460,299.537 332.800 C 300.228 332.140,300.953 331.600,301.148 331.600 C 301.344 331.600,302.245 330.880,303.152 330.000 C 304.059 329.120,304.965 328.400,305.166 328.400 C 305.366 328.400,306.627 327.320,307.968 326.000 C 309.308 324.680,310.574 323.600,310.780 323.600 C 311.270 323.600,323.600 311.270,323.600 310.780 C 323.600 310.574,324.680 309.308,326.000 307.968 C 327.320 306.627,328.400 305.366,328.400 305.166 C 328.400 304.965,329.120 304.059,330.000 303.152 C 330.880 302.245,331.600 301.344,331.600 301.148 C 331.600 300.953,332.140 300.228,332.800 299.537 C 333.460 298.846,334.000 298.104,334.000 297.888 C 334.000 297.671,334.316 297.203,334.703 296.847 C 335.089 296.491,335.660 295.705,335.970 295.100 C 336.281 294.495,336.685 294.000,336.868 294.000 C 337.050 294.000,337.200 293.764,337.200 293.475 C 337.200 293.187,337.515 292.602,337.900 292.175 C 338.285 291.749,338.855 290.905,339.168 290.300 C 339.480 289.695,339.885 289.200,340.068 289.200 C 340.250 289.200,340.400 288.880,340.400 288.488 C 340.400 288.097,340.760 287.517,341.200 287.200 C 341.640 286.883,342.000 286.303,342.000 285.912 C 342.000 285.520,342.180 285.200,342.400 285.200 C 342.620 285.200,342.800 284.922,342.800 284.583 C 342.800 284.244,343.160 283.580,343.600 283.108 C 344.040 282.636,344.400 282.013,344.400 281.725 C 344.400 281.436,344.580 281.200,344.800 281.200 C 345.020 281.200,345.200 280.840,345.200 280.400 C 345.200 279.960,345.380 279.600,345.600 279.600 C 345.820 279.600,346.000 279.240,346.000 278.800 C 346.000 278.360,346.180 278.000,346.400 278.000 C 346.620 278.000,346.800 277.640,346.800 277.200 C 346.800 276.760,346.980 276.400,347.200 276.400 C 347.420 276.400,347.600 276.040,347.600 275.600 C 347.600 275.160,347.780 274.800,348.000 274.800 C 348.220 274.800,348.400 274.440,348.400 274.000 C 348.400 273.560,348.580 273.200,348.800 273.200 C 349.020 273.200,349.200 272.840,349.200 272.400 C 349.200 271.960,349.380 271.600,349.600 271.600 C 349.820 271.600,350.000 271.240,350.000 270.800 C 350.000 270.360,350.180 270.000,350.400 270.000 C 350.620 270.000,350.800 269.640,350.800 269.200 C 350.800 268.760,350.980 268.400,351.200 268.400 C 351.420 268.400,351.600 268.051,351.600 267.624 C 351.600 267.197,351.780 266.736,352.000 266.600 C 352.220 266.464,352.400 265.913,352.400 265.376 C 352.400 264.839,352.580 264.400,352.800 264.400 C 353.020 264.400,353.200 264.040,353.200 263.600 C 353.200 263.160,353.380 262.800,353.600 262.800 C 353.820 262.800,354.000 262.438,354.000 261.995 C 354.000 261.552,354.180 260.832,354.400 260.395 C 354.620 259.958,354.980 259.242,355.200 258.805 C 355.420 258.368,355.600 257.648,355.600 257.205 C 355.600 256.762,355.780 256.400,356.000 256.400 C 356.220 256.400,356.400 255.860,356.400 255.200 C 356.400 254.540,356.580 254.000,356.800 254.000 C 357.020 254.000,357.200 253.460,357.200 252.800 C 357.200 252.140,357.380 251.600,357.600 251.600 C 357.820 251.600,358.000 251.060,358.000 250.400 C 358.000 249.740,358.180 249.200,358.400 249.200 C 358.620 249.200,358.800 248.671,358.800 248.024 C 358.800 247.377,358.980 246.736,359.200 246.600 C 359.420 246.464,359.600 245.733,359.600 244.976 C 359.600 244.219,359.780 243.600,360.000 243.600 C 360.220 243.600,360.400 242.880,360.400 242.000 C 360.400 241.120,360.580 240.400,360.800 240.400 C 361.020 240.400,361.200 239.691,361.200 238.824 C 361.200 237.957,361.380 237.136,361.600 237.000 C 361.820 236.864,362.000 235.953,362.000 234.976 C 362.000 233.999,362.180 233.200,362.400 233.200 C 362.620 233.200,362.800 232.311,362.800 231.224 C 362.800 230.137,362.980 229.136,363.200 229.000 C 363.420 228.864,363.600 227.593,363.600 226.176 C 363.600 224.725,363.775 223.600,364.000 223.600 C 364.233 223.600,364.400 222.275,364.400 220.424 C 364.400 218.677,364.580 217.136,364.800 217.000 C 365.056 216.842,365.200 210.870,365.200 200.400 C 365.200 189.930,365.056 183.958,364.800 183.800 C 364.580 183.664,364.400 182.123,364.400 180.376 C 364.400 178.525,364.233 177.200,364.000 177.200 C 363.775 177.200,363.600 176.075,363.600 174.624 C 363.600 173.207,363.420 171.936,363.200 171.800 C 362.980 171.664,362.800 170.663,362.800 169.576 C 362.800 168.489,362.620 167.600,362.400 167.600 C 362.180 167.600,362.000 166.801,362.000 165.824 C 362.000 164.847,361.820 163.936,361.600 163.800 C 361.380 163.664,361.200 162.843,361.200 161.976 C 361.200 161.109,361.020 160.400,360.800 160.400 C 360.580 160.400,360.400 159.680,360.400 158.800 C 360.400 157.920,360.220 157.200,360.000 157.200 C 359.780 157.200,359.600 156.581,359.600 155.824 C 359.600 155.067,359.420 154.336,359.200 154.200 C 358.980 154.064,358.800 153.423,358.800 152.776 C 358.800 152.129,358.620 151.600,358.400 151.600 C 358.180 151.600,358.000 151.060,358.000 150.400 C 358.000 149.740,357.820 149.200,357.600 149.200 C 357.380 149.200,357.200 148.660,357.200 148.000 C 357.200 147.340,357.020 146.800,356.800 146.800 C 356.580 146.800,356.400 146.260,356.400 145.600 C 356.400 144.940,356.220 144.400,356.000 144.400 C 355.780 144.400,355.600 144.038,355.600 143.595 C 355.600 143.152,355.420 142.432,355.200 141.995 C 354.980 141.558,354.620 140.842,354.400 140.405 C 354.180 139.968,354.000 139.248,354.000 138.805 C 354.000 138.362,353.820 138.000,353.600 138.000 C 353.380 138.000,353.200 137.640,353.200 137.200 C 353.200 136.760,353.020 136.400,352.800 136.400 C 352.580 136.400,352.400 135.961,352.400 135.424 C 352.400 134.887,352.220 134.336,352.000 134.200 C 351.780 134.064,351.600 133.603,351.600 133.176 C 351.600 132.749,351.420 132.400,351.200 132.400 C 350.980 132.400,350.800 132.040,350.800 131.600 C 350.800 131.160,350.620 130.800,350.400 130.800 C 350.180 130.800,350.000 130.440,350.000 130.000 C 350.000 129.560,349.820 129.200,349.600 129.200 C 349.380 129.200,349.200 128.840,349.200 128.400 C 349.200 127.960,349.020 127.600,348.800 127.600 C 348.580 127.600,348.400 127.240,348.400 126.800 C 348.400 126.360,348.220 126.000,348.000 126.000 C 347.780 126.000,347.600 125.640,347.600 125.200 C 347.600 124.760,347.420 124.400,347.200 124.400 C 346.980 124.400,346.800 124.040,346.800 123.600 C 346.800 123.160,346.620 122.800,346.400 122.800 C 346.180 122.800,346.000 122.440,346.000 122.000 C 346.000 121.560,345.820 121.200,345.600 121.200 C 345.380 121.200,345.200 120.840,345.200 120.400 C 345.200 119.960,345.020 119.600,344.800 119.600 C 344.580 119.600,344.400 119.364,344.400 119.075 C 344.400 118.787,344.040 118.164,343.600 117.692 C 343.160 117.220,342.800 116.556,342.800 116.217 C 342.800 115.878,342.620 115.600,342.400 115.600 C 342.180 115.600,342.000 115.280,342.000 114.888 C 342.000 114.497,341.640 113.917,341.200 113.600 C 340.760 113.283,340.400 112.703,340.400 112.312 C 340.400 111.920,340.250 111.600,340.068 111.600 C 339.885 111.600,339.480 111.105,339.168 110.500 C 338.855 109.895,338.285 109.051,337.900 108.625 C 337.515 108.198,337.200 107.653,337.200 107.413 C 337.200 107.173,336.840 106.717,336.400 106.400 C 335.960 106.083,335.600 105.543,335.600 105.200 C 335.600 104.857,335.240 104.317,334.800 104.000 C 334.360 103.683,334.000 103.220,334.000 102.971 C 334.000 102.722,333.460 101.954,332.800 101.263 C 332.140 100.572,331.600 99.847,331.600 99.652 C 331.600 99.456,330.880 98.555,330.000 97.648 C 329.120 96.741,328.400 95.835,328.400 95.634 C 328.400 95.434,327.320 94.173,326.000 92.832 C 324.680 91.492,323.600 90.226,323.600 90.020 C 323.600 89.530,311.270 77.200,310.780 77.200 C 310.574 77.200,309.308 76.120,307.968 74.800 C 306.627 73.480,305.366 72.400,305.166 72.400 C 304.965 72.400,304.059 71.680,303.152 70.800 C 302.245 69.920,301.344 69.200,301.148 69.200 C 300.953 69.200,300.228 68.660,299.537 68.000 C 298.846 67.340,298.104 66.800,297.888 66.800 C 297.671 66.800,297.203 66.484,296.847 66.097 C 296.491 65.711,295.705 65.140,295.100 64.830 C 294.495 64.519,294.000 64.115,294.000 63.932 C 294.000 63.750,293.764 63.600,293.475 63.600 C 293.187 63.600,292.602 63.285,292.175 62.900 C 291.749 62.515,290.905 61.945,290.300 61.632 C 289.695 61.320,289.200 60.915,289.200 60.732 C 289.200 60.550,288.880 60.400,288.488 60.400 C 288.097 60.400,287.517 60.040,287.200 59.600 C 286.883 59.160,286.303 58.800,285.912 58.800 C 285.520 58.800,285.200 58.620,285.200 58.400 C 285.200 58.180,284.922 58.000,284.583 58.000 C 284.244 58.000,283.580 57.640,283.108 57.200 C 282.636 56.760,282.013 56.400,281.725 56.400 C 281.436 56.400,281.200 56.220,281.200 56.000 C 281.200 55.780,280.840 55.600,280.400 55.600 C 279.960 55.600,279.600 55.420,279.600 55.200 C 279.600 54.980,279.240 54.800,278.800 54.800 C 278.360 54.800,278.000 54.620,278.000 54.400 C 278.000 54.180,277.640 54.000,277.200 54.000 C 276.760 54.000,276.400 53.820,276.400 53.600 C 276.400 53.380,276.040 53.200,275.600 53.200 C 275.160 53.200,274.800 53.020,274.800 52.800 C 274.800 52.580,274.440 52.400,274.000 52.400 C 273.560 52.400,273.200 52.220,273.200 52.000 C 273.200 51.780,272.840 51.600,272.400 51.600 C 271.960 51.600,271.600 51.420,271.600 51.200 C 271.600 50.980,271.240 50.800,270.800 50.800 C 270.360 50.800,270.000 50.620,270.000 50.400 C 270.000 50.180,269.640 50.000,269.200 50.000 C 268.760 50.000,268.400 49.820,268.400 49.600 C 268.400 49.380,268.051 49.200,267.624 49.200 C 267.197 49.200,266.736 49.020,266.600 48.800 C 266.464 48.580,265.913 48.400,265.376 48.400 C 264.839 48.400,264.400 48.220,264.400 48.000 C 264.400 47.780,264.040 47.600,263.600 47.600 C 263.160 47.600,262.800 47.420,262.800 47.200 C 262.800 46.980,262.438 46.800,261.995 46.800 C 261.552 46.800,260.787 46.592,260.295 46.338 C 258.369 45.342,257.983 45.200,257.205 45.200 C 256.762 45.200,256.400 45.020,256.400 44.800 C 256.400 44.580,255.860 44.400,255.200 44.400 C 254.540 44.400,254.000 44.220,254.000 44.000 C 254.000 43.780,253.460 43.600,252.800 43.600 C 252.140 43.600,251.600 43.420,251.600 43.200 C 251.600 42.980,251.060 42.800,250.400 42.800 C 249.740 42.800,249.200 42.620,249.200 42.400 C 249.200 42.180,248.671 42.000,248.024 42.000 C 247.377 42.000,246.736 41.820,246.600 41.600 C 246.464 41.380,245.733 41.200,244.976 41.200 C 244.219 41.200,243.600 41.020,243.600 40.800 C 243.600 40.580,242.880 40.400,242.000 40.400 C 241.120 40.400,240.400 40.220,240.400 40.000 C 240.400 39.780,239.691 39.600,238.824 39.600 C 237.957 39.600,237.136 39.420,237.000 39.200 C 236.864 38.980,235.953 38.800,234.976 38.800 C 233.999 38.800,233.200 38.620,233.200 38.400 C 233.200 38.180,232.311 38.000,231.224 38.000 C 230.137 38.000,229.136 37.820,229.000 37.600 C 228.864 37.380,227.593 37.200,226.176 37.200 C 224.725 37.200,223.600 37.025,223.600 36.800 C 223.600 36.567,222.275 36.400,220.424 36.400 C 218.677 36.400,217.136 36.220,217.000 36.000 C 216.842 35.744,210.870 35.600,200.400 35.600 C 189.930 35.600,183.958 35.744,183.800 36.000 M217.200 37.559 C 223.179 38.250,226.197 38.700,231.200 39.648 C 235.630 40.488,241.212 41.821,244.400 42.800 C 244.950 42.969,246.210 43.334,247.200 43.610 C 251.698 44.868,257.092 46.729,258.895 47.647 C 259.277 47.841,259.774 48.000,259.999 48.000 C 260.224 48.000,261.262 48.378,262.304 48.840 C 263.347 49.302,264.560 49.828,265.000 50.009 C 268.897 51.611,282.361 58.548,284.420 60.014 C 285.027 60.446,285.636 60.800,285.774 60.800 C 286.057 60.800,295.692 67.191,296.000 67.584 C 296.110 67.724,296.830 68.277,297.600 68.814 C 298.370 69.350,299.270 70.006,299.600 70.271 C 299.930 70.536,301.730 71.971,303.600 73.458 C 312.982 80.921,326.220 94.785,332.000 103.200 C 332.529 103.970,333.076 104.690,333.216 104.800 C 333.609 105.108,340.000 114.743,340.000 115.026 C 340.000 115.164,340.354 115.773,340.786 116.380 C 342.252 118.439,349.189 131.903,350.791 135.800 C 350.972 136.240,351.498 137.453,351.960 138.496 C 352.422 139.538,352.800 140.576,352.800 140.801 C 352.800 141.026,352.959 141.523,353.153 141.905 C 354.886 145.312,358.551 157.392,360.342 165.600 C 360.706 167.267,360.928 168.409,361.993 174.100 C 362.209 175.255,362.472 177.010,362.578 178.000 C 362.683 178.990,363.001 181.870,363.285 184.400 C 363.585 187.085,363.800 193.747,363.800 200.400 C 363.800 207.053,363.585 213.715,363.285 216.400 C 363.001 218.930,362.683 221.810,362.578 222.800 C 362.472 223.790,362.209 225.545,361.993 226.700 C 360.397 235.228,360.316 235.603,358.768 241.700 C 357.303 247.474,354.326 256.589,353.153 258.895 C 352.959 259.277,352.800 259.774,352.800 259.999 C 352.800 260.224,352.422 261.262,351.960 262.304 C 351.498 263.347,350.972 264.560,350.791 265.000 C 349.189 268.897,342.252 282.361,340.786 284.420 C 340.354 285.027,340.000 285.636,340.000 285.774 C 340.000 286.057,333.609 295.692,333.216 296.000 C 333.076 296.110,332.529 296.830,332.000 297.600 C 326.202 306.042,313.012 319.855,303.600 327.342 C 301.730 328.829,299.930 330.264,299.600 330.529 C 299.270 330.794,298.370 331.450,297.600 331.986 C 296.830 332.523,296.110 333.076,296.000 333.216 C 295.692 333.609,286.057 340.000,285.774 340.000 C 285.636 340.000,285.027 340.354,284.420 340.786 C 282.361 342.252,268.897 349.189,265.000 350.791 C 264.560 350.972,263.347 351.498,262.304 351.960 C 261.262 352.422,260.224 352.800,259.999 352.800 C 259.774 352.800,259.277 352.959,258.895 353.153 C 257.092 354.071,251.698 355.932,247.200 357.190 C 246.210 357.466,244.950 357.831,244.400 358.000 C 241.038 359.033,235.732 360.296,231.100 361.168 C 224.653 362.380,223.201 362.582,213.800 363.582 C 208.639 364.131,192.161 364.131,187.000 363.582 C 180.324 362.872,176.301 362.376,174.200 362.003 C 168.958 361.072,165.110 360.283,162.200 359.542 C 161.320 359.317,159.880 358.955,159.000 358.735 C 153.584 357.386,144.209 354.325,141.905 353.153 C 141.523 352.959,141.026 352.800,140.801 352.800 C 140.576 352.800,139.538 352.422,138.496 351.960 C 137.453 351.498,136.240 350.972,135.800 350.791 C 131.903 349.189,118.439 342.252,116.380 340.786 C 115.773 340.354,115.164 340.000,115.026 340.000 C 114.743 340.000,105.108 333.609,104.800 333.216 C 104.690 333.076,103.970 332.523,103.200 331.986 C 102.430 331.450,101.530 330.794,101.200 330.529 C 100.870 330.264,99.070 328.829,97.200 327.342 C 87.818 319.879,74.580 306.015,68.800 297.600 C 68.271 296.830,67.724 296.110,67.584 296.000 C 67.191 295.692,60.800 286.057,60.800 285.774 C 60.800 285.636,60.446 285.027,60.014 284.420 C 58.548 282.361,51.611 268.897,50.009 265.000 C 49.828 264.560,49.302 263.347,48.840 262.304 C 48.378 261.262,48.000 260.224,48.000 259.999 C 48.000 259.774,47.841 259.277,47.647 258.895 C 45.511 254.696,41.446 240.629,39.645 231.200 C 37.527 220.119,37.000 213.977,37.000 200.400 C 37.000 189.324,37.184 185.616,38.025 179.800 C 39.265 171.218,40.054 166.925,41.258 162.200 C 41.483 161.320,41.825 159.970,42.019 159.200 C 43.508 153.284,46.438 144.282,47.647 141.905 C 47.841 141.523,48.000 141.026,48.000 140.801 C 48.000 140.576,48.378 139.538,48.840 138.496 C 49.302 137.453,49.828 136.240,50.009 135.800 C 51.611 131.903,58.548 118.439,60.014 116.380 C 60.446 115.773,60.800 115.164,60.800 115.026 C 60.800 114.743,67.191 105.108,67.584 104.800 C 67.724 104.690,68.271 103.970,68.800 103.200 C 74.580 94.785,87.818 80.921,97.200 73.458 C 99.070 71.971,100.870 70.536,101.200 70.271 C 101.530 70.006,102.430 69.350,103.200 68.814 C 103.970 68.277,104.690 67.724,104.800 67.584 C 105.108 67.191,114.743 60.800,115.026 60.800 C 115.164 60.800,115.773 60.446,116.380 60.014 C 118.439 58.548,131.903 51.611,135.800 50.009 C 136.240 49.828,137.453 49.302,138.496 48.840 C 139.538 48.378,140.576 48.000,140.801 48.000 C 141.026 48.000,141.523 47.841,141.905 47.647 C 146.104 45.511,160.171 41.446,169.600 39.645 C 170.810 39.413,173.060 39.031,174.600 38.795 C 176.140 38.559,178.401 38.194,179.624 37.983 C 180.847 37.772,182.737 37.587,183.824 37.570 C 184.911 37.554,186.610 37.389,187.600 37.203 C 189.913 36.770,212.739 37.044,217.200 37.559 M292.541 200.546 C 277.306 211.981,259.389 221.562,246.196 225.330 C 222.865 231.992,206.447 228.654,156.667 207.125 C 153.624 205.809,151.051 204.815,150.950 204.917 C 150.739 205.127,155.962 208.511,159.110 210.204 C 161.849 211.676,161.654 209.555,161.518 236.400 L 161.400 259.800 160.335 262.072 C 159.317 264.243,157.017 266.458,155.259 266.960 C 148.076 269.010,147.624 269.337,150.100 270.690 C 151.487 271.447,173.047 271.550,189.191 270.875 L 195.783 270.600 196.166 269.508 C 196.687 268.021,196.424 267.866,192.862 267.560 C 181.536 266.586,179.984 262.513,180.683 235.600 L 181.000 223.400 181.921 223.269 C 182.428 223.198,184.188 223.786,185.832 224.577 C 201.186 231.964,215.862 234.981,235.200 234.728 L 245.000 234.600 244.872 244.400 C 244.676 259.421,244.290 261.722,241.455 264.734 C 239.877 266.412,238.389 267.200,236.800 267.200 C 234.185 267.200,231.553 269.519,233.180 270.389 C 233.724 270.680,245.367 270.779,270.418 270.706 L 306.866 270.600 308.018 269.310 C 310.354 266.696,312.000 257.379,312.000 246.779 C 312.000 238.411,310.849 237.553,309.200 244.691 C 306.870 254.771,302.103 259.486,294.400 259.329 C 280.816 259.051,273.362 258.497,271.309 257.611 C 264.640 254.735,262.356 245.621,264.443 230.221 C 264.881 226.989,265.191 226.574,268.745 224.454 C 277.746 219.084,287.778 209.942,297.017 198.690 C 299.803 195.298,299.200 195.548,292.541 200.546 " stroke="none" fill="#313131" fill-rule="evenodd"></path><path id="path1" d="M120.233 118.858 C 117.734 124.841,116.529 146.831,118.827 144.533 C 119.022 144.338,119.521 142.817,119.937 141.152 C 121.360 135.459,124.013 132.474,129.200 130.729 C 132.641 129.571,159.400 129.057,160.471 130.128 C 161.085 130.742,161.933 165.066,161.370 166.533 C 160.973 167.567,160.311 167.538,156.396 166.313 C 116.062 153.686,81.684 157.275,54.869 176.911 C 51.863 179.112,52.324 179.104,59.256 176.836 C 86.592 167.893,108.600 169.588,136.600 182.793 C 152.649 190.361,166.800 196.166,185.400 202.809 C 190.240 204.538,196.180 206.696,198.600 207.605 C 212.559 212.848,216.912 213.922,225.657 214.276 C 241.963 214.936,258.628 210.440,271.600 201.880 C 279.785 196.479,297.189 179.455,295.872 178.138 C 295.737 178.003,293.235 179.244,290.313 180.895 C 278.769 187.419,267.301 191.110,265.215 188.974 C 264.467 188.208,264.636 135.848,265.407 129.442 C 266.039 124.198,268.776 121.902,275.400 121.058 C 278.581 120.653,279.000 120.507,279.000 119.800 C 279.000 118.581,273.005 118.313,251.176 118.558 C 231.856 118.775,231.200 118.822,231.200 119.994 C 231.200 120.926,232.653 121.463,236.712 122.032 C 241.930 122.763,243.822 124.697,244.908 130.410 C 245.468 133.359,245.635 189.359,245.089 191.314 C 243.985 195.265,228.957 192.231,197.600 181.725 C 182.369 176.622,181.381 176.238,180.997 175.269 C 180.061 172.909,181.148 130.849,182.161 130.206 C 183.122 129.597,208.412 130.516,211.400 131.269 C 214.981 132.171,218.671 137.821,219.434 143.570 C 219.720 145.729,220.431 147.075,221.075 146.677 C 221.572 146.370,222.086 128.138,221.736 123.207 L 221.481 119.614 220.241 119.410 C 219.080 119.220,168.522 118.207,135.502 117.713 L 120.804 117.493 120.233 118.858 " stroke="none" fill="#f30b0b" fill-rule="evenodd"></path><path id="path2" d="M191.400 37.432 C 190.520 37.517,187.550 37.785,184.800 38.027 C 86.091 46.718,17.576 144.273,42.357 240.845 C 70.214 349.407,197.535 398.358,290.600 336.287 C 394.955 266.685,385.183 110.461,272.958 54.276 C 248.938 42.250,214.694 35.177,191.400 37.432 M149.400 117.013 C 155.560 117.134,174.165 117.488,190.746 117.800 C 216.762 118.290,221.022 118.453,221.846 118.993 L 222.800 119.618 222.770 131.909 C 222.734 146.804,222.633 147.751,221.051 147.931 C 219.439 148.115,219.262 147.815,218.353 143.364 C 217.011 136.795,214.387 133.038,210.438 132.031 C 207.348 131.243,183.101 130.647,182.590 131.347 C 182.068 132.060,181.346 173.272,181.833 174.542 C 182.169 175.416,181.792 175.265,194.600 179.658 C 224.550 189.930,242.459 194.073,244.055 191.100 C 244.729 189.844,244.804 136.369,244.137 131.890 C 243.201 125.589,241.396 123.628,235.818 122.848 C 230.289 122.075,227.922 119.704,231.115 118.138 C 232.331 117.542,278.042 117.511,279.200 118.105 C 282.179 119.634,280.159 121.799,275.447 122.127 C 270.930 122.441,268.968 123.531,267.401 126.595 L 266.200 128.943 265.938 144.171 C 265.794 152.547,265.659 165.951,265.638 173.959 L 265.600 188.517 268.634 188.261 C 274.217 187.789,281.969 184.658,291.601 178.985 C 300.686 173.633,300.913 174.893,292.578 184.400 C 275.098 204.339,256.197 214.088,233.000 215.130 C 220.712 215.683,215.304 214.758,201.683 209.779 C 197.128 208.114,190.610 205.752,187.200 204.531 C 171.728 198.992,167.688 197.444,157.400 193.109 C 149.014 189.576,143.746 187.242,138.000 184.514 C 107.258 169.919,83.341 168.447,55.000 179.403 C 44.967 183.281,47.736 179.594,60.400 172.212 C 88.882 155.609,117.893 153.401,155.400 164.978 C 157.820 165.725,159.955 166.187,160.144 166.004 C 161.108 165.073,160.236 130.938,159.242 130.725 C 158.889 130.650,152.300 130.681,144.600 130.795 L 130.600 131.002 128.382 132.041 C 123.950 134.118,121.952 136.753,120.618 142.283 C 119.861 145.419,119.280 146.206,118.020 145.806 C 115.218 144.917,117.332 118.611,120.352 116.791 C 120.748 116.553,124.350 116.477,129.600 116.597 C 134.330 116.705,143.240 116.892,149.400 117.013 M300.317 195.267 C 300.530 196.366,290.428 207.806,283.595 214.204 C 279.501 218.038,276.240 220.555,270.681 224.176 C 265.162 227.770,265.388 227.362,264.797 234.836 C 263.682 248.939,266.232 255.611,273.400 257.349 C 275.500 257.859,289.463 258.623,295.268 258.547 C 301.653 258.463,306.043 254.044,308.132 245.600 C 308.486 244.170,308.963 242.254,309.192 241.341 C 309.610 239.678,310.327 239.043,311.346 239.435 C 314.369 240.595,312.597 264.029,309.092 269.229 C 307.420 271.710,309.443 271.588,270.000 271.589 C 232.594 271.589,232.192 271.577,231.897 270.448 C 231.382 268.479,233.152 266.961,236.623 266.396 C 242.850 265.383,244.339 260.129,244.391 239.000 L 244.400 235.400 232.700 235.400 C 217.862 235.399,210.473 234.350,198.800 230.586 C 194.267 229.125,184.161 225.025,183.420 224.348 C 183.211 224.156,182.741 224.000,182.375 224.000 C 181.480 224.000,180.805 252.763,181.608 256.652 C 182.919 262.997,186.459 266.217,192.600 266.652 C 197.471 266.997,197.767 267.244,196.955 270.272 C 196.605 271.580,196.532 271.587,182.054 271.905 C 159.537 272.399,151.212 272.299,149.771 271.518 C 146.583 269.792,147.091 268.504,151.460 267.234 C 160.948 264.477,160.567 265.761,160.711 236.000 L 160.825 212.200 153.233 207.640 C 149.057 205.133,145.549 202.843,145.437 202.553 C 145.015 201.452,146.109 201.606,149.498 203.127 C 157.765 206.836,182.152 216.945,188.000 219.085 C 216.551 229.538,232.311 230.155,254.200 221.675 C 265.721 217.211,281.499 208.063,292.913 199.229 C 299.679 193.993,300.033 193.803,300.317 195.267 M354.243 273.433 C 353.841 274.479,353.982 283.754,354.409 284.400 C 355.337 285.804,356.381 283.283,356.391 279.613 C 356.403 275.216,355.051 271.327,354.243 273.433 " stroke="none" fill="#fbfbfb" fill-rule="evenodd"></path><path id="path3" d="M187.800 37.157 C 186.920 37.291,192.590 37.400,200.400 37.400 C 208.210 37.400,213.790 37.278,212.800 37.130 C 210.591 36.798,190.014 36.820,187.800 37.157 M180.000 38.000 C 178.634 38.438,180.888 38.447,184.000 38.017 L 186.200 37.713 183.600 37.696 C 182.170 37.687,180.550 37.824,180.000 38.000 M216.800 38.017 C 219.912 38.447,222.166 38.438,220.800 38.000 C 220.250 37.824,218.630 37.687,217.200 37.696 L 214.600 37.713 216.800 38.017 M173.600 38.867 C 172.610 39.072,170.810 39.425,169.600 39.652 C 168.390 39.879,166.680 40.220,165.800 40.410 C 164.920 40.600,163.684 40.864,163.053 40.997 C 162.422 41.130,161.999 41.332,162.113 41.446 C 162.227 41.561,164.139 41.265,166.360 40.789 C 168.582 40.313,172.335 39.602,174.700 39.208 C 177.556 38.733,178.395 38.493,177.200 38.494 C 176.210 38.495,174.590 38.663,173.600 38.867 M226.100 39.208 C 228.465 39.602,232.218 40.313,234.440 40.789 C 236.661 41.265,238.573 41.561,238.687 41.446 C 238.801 41.332,238.378 41.130,237.747 40.997 C 237.116 40.864,235.880 40.600,235.000 40.410 C 234.120 40.220,232.410 39.882,231.200 39.659 C 229.990 39.435,228.041 39.060,226.869 38.826 C 225.698 38.592,224.078 38.421,223.269 38.446 C 222.436 38.472,223.661 38.802,226.100 39.208 M159.200 42.000 C 158.413 42.509,159.816 42.509,161.000 42.000 C 161.733 41.685,161.716 41.654,160.800 41.634 C 160.250 41.622,159.530 41.787,159.200 42.000 M241.000 42.269 C 251.243 45.269,254.680 46.404,260.389 48.670 C 301.025 64.795,334.695 97.817,351.018 137.558 C 351.867 139.624,352.624 141.127,352.701 140.896 C 352.778 140.666,352.454 139.605,351.980 138.539 C 351.507 137.473,350.972 136.240,350.791 135.800 C 349.189 131.903,342.252 118.439,340.786 116.380 C 340.354 115.773,340.000 115.164,340.000 115.026 C 340.000 114.743,333.609 105.108,333.216 104.800 C 333.076 104.690,332.529 103.970,332.000 103.200 C 326.220 94.785,312.982 80.921,303.600 73.458 C 301.730 71.971,299.930 70.536,299.600 70.271 C 299.270 70.006,298.370 69.350,297.600 68.814 C 296.830 68.277,296.110 67.724,296.000 67.584 C 295.692 67.191,286.057 60.800,285.774 60.800 C 285.636 60.800,285.027 60.446,284.420 60.014 C 282.361 58.548,268.897 51.611,265.000 50.009 C 264.560 49.828,263.347 49.302,262.304 48.840 C 261.262 48.378,260.224 48.000,259.999 48.000 C 259.774 48.000,259.277 47.841,258.895 47.647 C 257.109 46.738,251.895 44.935,247.200 43.603 C 246.210 43.322,244.770 42.913,244.000 42.695 C 243.230 42.476,242.187 42.141,241.681 41.949 C 241.176 41.757,240.366 41.619,239.881 41.642 C 239.391 41.665,239.887 41.943,241.000 42.269 M154.804 43.118 C 152.174 44.023,153.383 44.120,156.200 43.231 C 157.520 42.814,158.150 42.479,157.600 42.487 C 157.050 42.495,155.792 42.779,154.804 43.118 M147.800 45.381 C 142.858 47.146,142.692 47.209,141.905 47.629 C 141.523 47.833,141.026 48.000,140.801 48.000 C 140.576 48.000,139.538 48.378,138.496 48.840 C 137.453 49.302,136.240 49.828,135.800 50.009 C 131.903 51.611,118.439 58.548,116.380 60.014 C 115.773 60.446,115.164 60.800,115.026 60.800 C 114.743 60.800,105.108 67.191,104.800 67.584 C 104.690 67.724,103.970 68.277,103.200 68.814 C 102.430 69.350,101.530 70.006,101.200 70.271 C 100.870 70.536,99.070 71.971,97.200 73.458 C 87.818 80.921,74.580 94.785,68.800 103.200 C 68.271 103.970,67.724 104.690,67.584 104.800 C 67.191 105.108,60.800 114.743,60.800 115.026 C 60.800 115.164,60.446 115.773,60.014 116.380 C 58.548 118.439,51.611 131.903,50.009 135.800 C 49.828 136.240,49.293 137.473,48.820 138.539 C 48.346 139.605,48.022 140.666,48.099 140.896 C 48.176 141.127,48.933 139.624,49.782 137.558 C 67.155 95.260,102.804 61.877,147.600 45.960 C 150.570 44.904,152.640 44.053,152.200 44.068 C 151.760 44.084,149.780 44.674,147.800 45.381 M47.373 142.243 C 47.238 142.659,46.973 143.360,46.785 143.800 C 46.048 145.522,44.001 151.925,44.020 152.447 C 44.032 152.751,44.927 150.491,46.011 147.424 C 47.095 144.358,47.900 141.767,47.800 141.667 C 47.701 141.567,47.508 141.826,47.373 142.243 M352.800 141.676 C 352.801 142.157,356.764 152.882,356.780 152.447 C 356.803 151.804,354.555 144.929,353.986 143.905 C 353.774 143.523,353.600 142.949,353.600 142.629 C 353.600 142.309,353.420 141.936,353.200 141.800 C 352.980 141.664,352.800 141.608,352.800 141.676 M117.612 144.076 C 117.596 144.993,118.363 145.405,118.935 144.786 C 119.289 144.403,119.287 144.346,118.925 144.550 C 118.663 144.697,118.264 144.498,118.037 144.108 C 117.661 143.464,117.623 143.461,117.612 144.076 M43.032 155.470 C 42.679 156.752,42.190 158.454,41.946 159.254 C 41.702 160.053,41.579 160.936,41.672 161.216 C 41.765 161.496,42.328 159.867,42.923 157.598 C 43.518 155.328,43.930 153.397,43.839 153.306 C 43.748 153.215,43.385 154.189,43.032 155.470 M356.805 153.500 C 356.819 154.267,358.331 158.513,358.364 157.875 C 358.402 157.117,357.221 153.200,356.954 153.200 C 356.869 153.200,356.802 153.335,356.805 153.500 M358.434 159.400 C 358.472 160.766,359.138 162.042,359.166 160.800 C 359.178 160.250,359.013 159.530,358.800 159.200 C 358.480 158.705,358.416 158.740,358.434 159.400 M40.997 163.053 C 40.864 163.684,40.600 164.920,40.410 165.800 C 40.220 166.680,39.882 168.390,39.659 169.600 C 39.435 170.810,39.060 172.759,38.826 173.931 C 38.592 175.102,38.421 176.722,38.446 177.531 C 38.472 178.364,38.802 177.139,39.208 174.700 C 39.602 172.335,40.313 168.582,40.789 166.360 C 41.265 164.139,41.561 162.227,41.446 162.113 C 41.332 161.999,41.130 162.422,40.997 163.053 M359.227 162.275 C 359.212 162.537,359.484 163.974,359.831 165.469 C 360.177 166.965,360.884 170.621,361.400 173.594 C 361.984 176.958,362.351 178.360,362.370 177.306 C 362.386 176.374,362.227 174.844,362.016 173.906 C 361.805 172.968,361.428 171.120,361.178 169.800 C 360.048 163.839,359.302 160.960,359.227 162.275 M295.985 177.198 C 295.173 177.899,294.919 178.285,295.369 178.128 C 296.005 177.908,296.087 177.995,295.844 178.630 C 295.627 179.195,295.873 179.088,296.774 178.224 C 298.964 176.127,298.269 175.222,295.985 177.198 M51.299 178.891 C 47.965 180.942,48.623 181.532,52.260 179.753 C 54.579 178.618,54.903 178.345,53.500 178.707 C 52.698 178.913,52.660 178.866,53.149 178.269 C 53.908 177.344,53.702 177.413,51.299 178.891 M37.890 180.350 C 37.731 181.093,37.623 182.713,37.651 183.950 L 37.701 186.200 38.063 183.400 C 38.473 180.222,38.357 178.178,37.890 180.350 M362.479 180.400 C 362.479 181.170,362.616 182.790,362.783 184.000 L 363.087 186.200 363.104 183.600 C 363.113 182.170,362.976 180.550,362.800 180.000 C 362.510 179.095,362.480 179.133,362.479 180.400 M37.059 188.500 C 36.727 191.264,36.783 210.491,37.130 212.800 C 37.278 213.790,37.400 208.255,37.400 200.500 C 37.400 192.745,37.380 186.400,37.356 186.400 C 37.331 186.400,37.198 187.345,37.059 188.500 M363.400 200.400 C 363.400 208.210,363.522 213.790,363.670 212.800 C 363.819 211.810,363.941 206.230,363.941 200.400 C 363.941 194.570,363.819 188.990,363.670 188.000 C 363.522 187.010,363.400 192.590,363.400 200.400 M297.131 196.080 C 277.871 211.496,257.091 222.389,239.800 226.134 C 219.423 230.547,198.325 225.129,148.250 202.622 C 146.958 202.041,145.794 201.672,145.664 201.802 C 145.061 202.406,146.798 203.718,153.548 207.757 L 160.830 212.115 160.715 235.957 C 160.572 265.558,160.947 264.165,152.392 266.927 C 147.389 268.542,146.632 269.835,149.785 271.374 C 152.070 272.489,194.866 272.247,196.289 271.110 C 198.505 269.341,197.061 266.930,193.740 266.853 C 186.278 266.681,182.169 262.733,181.295 254.896 C 180.956 251.855,181.520 224.331,181.929 223.942 C 182.078 223.799,183.370 224.257,184.800 224.960 C 200.143 232.493,216.067 235.821,235.400 235.536 L 244.600 235.400 244.566 237.000 C 244.019 262.538,243.125 265.695,236.200 266.556 C 232.072 267.069,230.087 270.875,233.678 271.392 C 238.846 272.137,307.106 271.409,308.001 270.600 C 310.877 267.999,312.787 258.406,312.796 246.522 C 312.803 237.605,310.255 236.375,308.441 244.421 C 306.627 252.463,303.400 256.829,298.284 258.161 C 294.315 259.195,273.954 258.063,271.061 256.648 C 265.747 254.048,263.700 246.996,264.753 234.919 C 265.451 226.910,265.195 227.498,268.972 225.217 C 277.304 220.184,288.867 209.816,296.425 200.600 C 298.049 198.620,299.617 196.753,299.909 196.451 C 300.516 195.824,300.422 194.740,299.740 194.513 C 299.487 194.429,298.313 195.134,297.131 196.080 M297.017 198.690 C 287.778 209.942,277.746 219.084,268.745 224.454 C 265.191 226.574,264.881 226.989,264.443 230.221 C 262.356 245.621,264.640 254.735,271.309 257.611 C 273.362 258.497,280.816 259.051,294.400 259.329 C 302.103 259.486,306.870 254.771,309.200 244.691 C 310.849 237.553,312.000 238.411,312.000 246.779 C 312.000 257.379,310.354 266.696,308.018 269.310 L 306.866 270.600 270.418 270.706 C 245.367 270.779,233.724 270.680,233.180 270.389 C 231.553 269.519,234.185 267.200,236.800 267.200 C 238.389 267.200,239.877 266.412,241.455 264.734 C 244.290 261.722,244.676 259.421,244.872 244.400 L 245.000 234.600 235.200 234.728 C 215.862 234.981,201.186 231.964,185.832 224.577 C 184.188 223.786,182.428 223.198,181.921 223.269 L 181.000 223.400 180.683 235.600 C 179.984 262.513,181.536 266.586,192.862 267.560 C 196.424 267.866,196.687 268.021,196.166 269.508 L 195.783 270.600 189.191 270.875 C 173.047 271.550,151.487 271.447,150.100 270.690 C 147.624 269.337,148.076 269.010,155.259 266.960 C 157.017 266.458,159.317 264.243,160.335 262.072 L 161.400 259.800 161.518 236.400 C 161.654 209.555,161.849 211.676,159.110 210.204 C 155.962 208.511,150.739 205.127,150.950 204.917 C 151.051 204.815,153.624 205.809,156.667 207.125 C 206.447 228.654,222.865 231.992,246.196 225.330 C 259.389 221.562,277.306 211.981,292.541 200.546 C 299.200 195.548,299.803 195.298,297.017 198.690 M37.696 217.200 C 37.687 218.630,37.824 220.250,38.000 220.800 C 38.438 222.166,38.447 219.912,38.017 216.800 L 37.713 214.600 37.696 217.200 M362.669 217.936 C 362.488 219.771,362.429 221.362,362.539 221.473 C 362.867 221.800,363.269 218.344,363.129 216.400 C 363.024 214.934,362.939 215.219,362.669 217.936 M38.446 223.269 C 38.421 224.078,38.592 225.698,38.826 226.869 C 39.060 228.041,39.435 229.990,39.659 231.200 C 39.882 232.410,40.220 234.120,40.410 235.000 C 40.600 235.880,40.864 237.116,40.997 237.747 C 41.130 238.378,41.332 238.801,41.446 238.687 C 41.561 238.573,41.265 236.661,40.789 234.440 C 40.313 232.218,39.602 228.465,39.208 226.100 C 38.802 223.661,38.472 222.436,38.446 223.269 M361.886 224.200 C 361.716 225.520,361.037 229.280,360.378 232.557 C 359.719 235.833,359.265 238.599,359.370 238.704 C 359.475 238.809,359.670 238.378,359.803 237.747 C 359.936 237.116,360.200 235.880,360.390 235.000 C 360.580 234.120,360.930 232.365,361.168 231.100 C 361.405 229.835,361.796 227.855,362.036 226.700 C 362.276 225.545,362.410 223.970,362.334 223.200 C 362.219 222.039,362.143 222.210,361.886 224.200 M41.634 240.000 C 41.622 240.550,41.787 241.270,42.000 241.600 C 42.509 242.387,42.509 240.984,42.000 239.800 C 41.685 239.067,41.654 239.084,41.634 240.000 M358.622 240.329 C 358.458 241.059,358.422 241.756,358.542 241.876 C 358.843 242.177,359.320 240.156,359.099 239.517 C 359.001 239.233,358.786 239.598,358.622 240.329 M42.436 242.925 C 42.391 243.826,43.700 247.905,43.867 247.382 C 43.934 247.172,43.648 245.920,43.231 244.600 C 42.814 243.280,42.457 242.526,42.436 242.925 M357.465 244.795 C 357.082 246.173,356.846 247.379,356.940 247.473 C 357.207 247.740,358.509 243.327,358.326 242.777 C 358.236 242.508,357.849 243.416,357.465 244.795 M44.020 248.353 C 44.001 248.875,46.048 255.278,46.785 257.000 C 46.973 257.440,47.238 258.141,47.373 258.557 C 47.508 258.974,47.701 259.233,47.800 259.133 C 47.900 259.033,47.095 256.442,46.011 253.376 C 44.927 250.309,44.032 248.049,44.020 248.353 M354.712 253.499 C 353.674 256.501,352.905 259.038,353.003 259.136 C 353.101 259.234,353.292 258.974,353.427 258.557 C 353.562 258.141,353.827 257.440,354.015 257.000 C 354.838 255.077,356.840 248.722,356.726 248.397 C 356.657 248.201,355.751 250.496,354.712 253.499 M48.000 259.938 C 48.000 260.197,48.378 261.262,48.840 262.304 C 49.302 263.347,49.828 264.560,50.009 265.000 C 51.611 268.897,58.548 282.361,60.014 284.420 C 60.446 285.027,60.800 285.636,60.800 285.774 C 60.800 286.057,67.191 295.692,67.584 296.000 C 67.724 296.110,68.271 296.830,68.800 297.600 C 74.580 306.015,87.818 319.879,97.200 327.342 C 99.070 328.829,100.870 330.264,101.200 330.529 C 101.530 330.794,102.430 331.450,103.200 331.986 C 103.970 332.523,104.690 333.076,104.800 333.216 C 105.108 333.609,114.743 340.000,115.026 340.000 C 115.164 340.000,115.773 340.354,116.380 340.786 C 118.439 342.252,131.903 349.189,135.800 350.791 C 136.240 350.972,137.473 351.507,138.539 351.980 C 139.605 352.454,140.666 352.778,140.896 352.701 C 141.127 352.624,139.624 351.867,137.558 351.018 C 99.137 335.237,66.012 302.224,50.004 263.761 C 48.334 259.749,48.000 259.111,48.000 259.938 M351.018 263.242 C 335.188 301.782,301.646 335.327,263.242 351.026 C 261.176 351.870,259.673 352.624,259.904 352.701 C 260.134 352.778,261.195 352.454,262.261 351.980 C 263.327 351.507,264.560 350.972,265.000 350.791 C 268.897 349.189,282.361 342.252,284.420 340.786 C 285.027 340.354,285.636 340.000,285.774 340.000 C 286.057 340.000,295.692 333.609,296.000 333.216 C 296.110 333.076,296.830 332.523,297.600 331.986 C 298.370 331.450,299.270 330.794,299.600 330.529 C 299.930 330.264,301.730 328.829,303.600 327.342 C 313.012 319.855,326.202 306.042,332.000 297.600 C 332.529 296.830,333.076 296.110,333.216 296.000 C 333.609 295.692,340.000 286.057,340.000 285.774 C 340.000 285.636,340.354 285.027,340.786 284.420 C 342.252 282.361,349.189 268.897,350.791 265.000 C 350.972 264.560,351.507 263.327,351.980 262.261 C 352.454 261.195,352.778 260.134,352.701 259.904 C 352.624 259.673,351.867 261.176,351.018 263.242 M141.800 353.200 C 141.936 353.420,142.309 353.600,142.629 353.600 C 142.949 353.600,143.523 353.774,143.905 353.986 C 144.929 354.555,151.804 356.803,152.447 356.780 C 152.882 356.764,142.157 352.801,141.676 352.800 C 141.608 352.800,141.664 352.980,141.800 353.200 M255.000 354.197 C 253.020 354.935,248.641 356.314,245.269 357.260 C 241.898 358.206,239.353 359.051,239.616 359.139 C 240.041 359.280,240.889 359.079,244.400 358.000 C 244.950 357.831,246.210 357.466,247.200 357.190 C 250.375 356.302,256.178 354.384,256.895 353.986 C 257.277 353.774,257.851 353.600,258.171 353.600 C 258.491 353.600,258.864 353.420,259.000 353.200 C 259.360 352.617,258.979 352.712,255.000 354.197 M153.200 356.954 C 153.200 357.221,157.117 358.402,157.875 358.364 C 158.274 358.343,157.520 357.986,156.200 357.569 C 153.749 356.795,153.200 356.682,153.200 356.954 M159.200 358.800 C 159.530 359.013,160.250 359.178,160.800 359.166 C 161.716 359.146,161.733 359.115,161.000 358.800 C 159.816 358.291,158.413 358.291,159.200 358.800 M162.600 359.581 C 163.385 359.902,165.121 360.289,169.700 361.162 C 177.382 362.626,181.640 363.211,184.107 363.140 C 185.335 363.105,185.704 363.016,185.000 362.926 C 184.340 362.840,181.640 362.502,179.000 362.173 C 176.360 361.844,171.542 361.040,168.294 360.387 C 162.181 359.158,161.240 359.025,162.600 359.581 M236.283 359.604 C 234.312 360.196,223.949 361.985,219.200 362.553 C 215.840 362.955,215.164 363.116,216.693 363.152 C 219.199 363.210,223.011 362.680,231.200 361.138 C 235.530 360.322,237.412 359.903,238.200 359.581 L 239.000 359.254 238.200 359.261 C 237.760 359.265,236.897 359.420,236.283 359.604 M188.000 363.670 C 188.990 363.819,194.570 363.941,200.400 363.941 C 206.230 363.941,211.810 363.819,212.800 363.670 C 213.790 363.522,208.210 363.400,200.400 363.400 C 192.590 363.400,187.010 363.522,188.000 363.670 " stroke="none" fill="#a0a0a0" fill-rule="evenodd"></path><path id="path4" d="M120.352 116.791 C 117.332 118.611,115.218 144.917,118.020 145.806 C 119.280 146.206,119.861 145.419,120.618 142.283 C 121.952 136.753,123.950 134.118,128.382 132.041 L 130.600 131.002 144.600 130.795 C 152.300 130.681,158.889 130.650,159.242 130.725 C 160.236 130.938,161.108 165.073,160.144 166.004 C 159.955 166.187,157.820 165.725,155.400 164.978 C 117.893 153.401,88.882 155.609,60.400 172.212 C 47.736 179.594,44.967 183.281,55.000 179.403 C 83.341 168.447,107.258 169.919,138.000 184.514 C 143.746 187.242,149.014 189.576,157.400 193.109 C 167.688 197.444,171.728 198.992,187.200 204.531 C 190.610 205.752,197.128 208.114,201.683 209.779 C 215.304 214.758,220.712 215.683,233.000 215.130 C 256.197 214.088,275.098 204.339,292.578 184.400 C 300.913 174.893,300.686 173.633,291.601 178.985 C 281.969 184.658,274.217 187.789,268.634 188.261 L 265.600 188.517 265.638 173.959 C 265.659 165.951,265.794 152.547,265.938 144.171 L 266.200 128.943 267.401 126.595 C 268.968 123.531,270.930 122.441,275.447 122.127 C 280.159 121.799,282.179 119.634,279.200 118.105 C 278.042 117.511,232.331 117.542,231.115 118.138 C 227.922 119.704,230.289 122.075,235.818 122.848 C 241.396 123.628,243.201 125.589,244.137 131.890 C 244.804 136.369,244.729 189.844,244.055 191.100 C 242.459 194.073,224.550 189.930,194.600 179.658 C 181.792 175.265,182.169 175.416,181.833 174.542 C 181.346 173.272,182.068 132.060,182.590 131.347 C 183.101 130.647,207.348 131.243,210.438 132.031 C 214.387 133.038,217.011 136.795,218.353 143.364 C 219.262 147.815,219.439 148.115,221.051 147.931 C 222.633 147.751,222.734 146.804,222.770 131.909 L 222.800 119.618 221.846 118.993 C 221.022 118.453,216.762 118.290,190.746 117.800 C 151.427 117.060,140.025 116.835,129.600 116.597 C 124.350 116.477,120.748 116.553,120.352 116.791 M184.600 118.569 C 203.520 118.920,219.558 119.298,220.241 119.410 L 221.482 119.614 221.732 123.107 C 222.167 129.199,221.565 147.200,220.926 147.200 C 220.264 147.200,219.805 146.050,219.419 143.427 C 218.571 137.655,214.949 132.163,211.400 131.269 C 208.412 130.516,183.122 129.597,182.161 130.206 C 181.148 130.849,180.061 172.909,180.997 175.269 C 181.381 176.238,182.369 176.622,197.600 181.725 C 228.957 192.231,243.985 195.265,245.089 191.314 C 245.635 189.359,245.468 133.359,244.908 130.410 C 243.822 124.697,241.930 122.763,236.712 122.032 C 232.346 121.420,231.125 120.928,231.280 119.843 C 231.529 118.095,278.827 117.762,279.495 119.504 C 279.823 120.359,278.980 120.703,275.831 120.999 C 269.148 121.629,266.045 124.141,265.407 129.442 C 264.636 135.848,264.467 188.208,265.215 188.974 C 267.740 191.561,288.215 183.763,295.772 177.337 C 297.409 175.945,298.000 175.703,298.000 176.427 C 298.000 177.723,283.097 193.077,277.400 197.652 C 263.161 209.085,244.615 215.044,225.657 214.276 C 216.912 213.922,212.559 212.848,198.600 207.605 C 196.180 206.696,190.240 204.538,185.400 202.809 C 166.800 196.166,152.649 190.361,136.600 182.793 C 112.331 171.348,91.357 168.539,69.600 173.820 C 63.275 175.355,56.046 177.768,52.973 179.370 C 47.939 181.995,47.738 181.012,52.700 178.036 C 54.625 176.881,57.640 175.041,59.400 173.946 C 87.204 156.645,117.817 154.235,156.396 166.313 C 160.311 167.538,160.973 167.567,161.370 166.533 C 161.933 165.066,161.085 130.742,160.471 130.128 C 159.400 129.057,132.641 129.571,129.200 130.729 C 123.894 132.514,121.363 135.441,119.836 141.562 C 119.244 143.933,118.795 145.000,118.389 145.000 C 116.670 145.000,118.162 123.816,120.229 118.869 L 120.804 117.493 135.502 117.713 C 143.586 117.834,165.680 118.219,184.600 118.569 M181.328 238.000 C 181.328 239.430,181.401 240.015,181.489 239.300 C 181.578 238.585,181.578 237.415,181.489 236.700 C 181.401 235.985,181.328 236.570,181.328 238.000 M244.493 236.800 C 244.493 237.570,244.575 237.885,244.676 237.500 C 244.776 237.115,244.776 236.485,244.676 236.100 C 244.575 235.715,244.493 236.030,244.493 236.800 M181.700 271.891 C 182.525 271.978,183.875 271.978,184.700 271.891 C 185.525 271.805,184.850 271.734,183.200 271.734 C 181.550 271.734,180.875 271.805,181.700 271.891 " stroke="none" fill="#f19f9e" fill-rule="evenodd"></path></g></svg>